<svg width="392" height="429" viewBox="0 0 392 429" fill="none" xmlns="http://www.w3.org/2000/svg">
<g filter="url(#filter0_d_113_551)">
<g clip-path="url(#clip0_113_551)">
<rect x="14" y="10" width="363.636" height="400" rx="9.09091" fill="white"/>
<g clip-path="url(#clip1_113_551)">
<g clip-path="url(#clip2_113_551)">
<g clip-path="url(#clip3_113_551)">
<path d="M57.1818 40.1136H48.0909C45.8943 40.1136 44.1136 41.8943 44.1136 44.0909V53.1818C44.1136 55.3784 45.8943 57.1591 48.0909 57.1591H57.1818C59.3784 57.1591 61.159 55.3784 61.159 53.1818V44.0909C61.159 41.8943 59.3784 40.1136 57.1818 40.1136Z" fill="white" stroke="#AEAEAE" stroke-width="1.13636"/>
<path d="M76.6275 54.2728H78.3901L80.8251 45.6064H80.9155L83.3504 54.2728H85.1074L88.322 42.7026H86.4803L84.2318 51.6684H84.1244L81.7799 42.7026H79.9607L77.6162 51.6627H77.5088L75.2547 42.7026H73.4186L76.6275 54.2728ZM89.2344 54.2728H90.9236V48.9736C90.9236 47.838 91.7993 47.0188 92.997 47.0188C93.3473 47.0188 93.7428 47.081 93.8783 47.1205V45.5047C93.7089 45.4822 93.3755 45.4652 93.1609 45.4652C92.1439 45.4652 91.2739 46.0415 90.9575 46.9736H90.8671V45.5951H89.2344V54.2728ZM95.3402 54.2728H97.0294V45.5951H95.3402V54.2728ZM96.1932 44.2562C96.7751 44.2562 97.261 43.8042 97.261 43.2506C97.261 42.6969 96.7751 42.2393 96.1932 42.2393C95.6057 42.2393 95.1255 42.6969 95.1255 43.2506C95.1255 43.8042 95.6057 44.2562 96.1932 44.2562ZM103.353 45.5951H101.573V43.5161H99.8838V45.5951H98.6127V46.951H99.8838V52.0752C99.8782 53.6514 101.082 54.4141 102.415 54.3858C102.951 54.3802 103.313 54.2785 103.511 54.205L103.206 52.8096C103.093 52.8322 102.884 52.883 102.613 52.883C102.065 52.883 101.573 52.7023 101.573 51.7249V46.951H103.353V45.5951ZM108.868 54.448C110.761 54.448 112.1 53.5158 112.484 52.1034L110.885 51.8153C110.58 52.6345 109.845 53.0525 108.885 53.0525C107.439 53.0525 106.467 52.1147 106.422 50.4424H112.591V49.8436C112.591 46.7081 110.715 45.4822 108.749 45.4822C106.331 45.4822 104.738 47.3239 104.738 49.9905C104.738 52.6853 106.309 54.448 108.868 54.448ZM106.427 49.1769C106.495 47.9453 107.388 46.8776 108.761 46.8776C110.071 46.8776 110.93 47.8493 110.936 49.1769H106.427ZM118.811 54.2728H120.557V49.2278H126.325V54.2728H128.076V42.7026H126.325V47.7307H120.557V42.7026H118.811V54.2728ZM130.048 44.2054H133.652V54.2728H135.393V44.2054H139.003V42.7026H130.048V44.2054ZM140.981 42.7026V54.2728H142.642V45.8946H142.75L146.162 54.2559H147.54L150.953 45.9002H151.06V54.2728H152.721V42.7026H150.603L146.919 51.6966H146.783L143.1 42.7026H140.981ZM155.259 54.2728H162.248V52.7701H157.005V42.7026H155.259V54.2728ZM170.839 54.4649C172.274 54.4649 173.082 53.7361 173.404 53.0864H173.472V54.2728H175.121V48.5103C175.121 45.985 173.133 45.4822 171.754 45.4822C170.184 45.4822 168.738 46.1149 168.173 47.6968L169.76 48.0583C170.009 47.4425 170.641 46.8493 171.777 46.8493C172.867 46.8493 173.427 47.4199 173.427 48.403V48.4425C173.427 49.0583 172.794 49.047 171.235 49.2278C169.591 49.4199 167.907 49.8492 167.907 51.8209C167.907 53.5271 169.189 54.4649 170.839 54.4649ZM171.206 53.109C170.252 53.109 169.562 52.6797 169.562 51.8435C169.562 50.9396 170.365 50.6176 171.342 50.4876C171.89 50.4142 173.189 50.2673 173.432 50.0244V51.143C173.432 52.1712 172.613 53.109 171.206 53.109ZM179.061 49.1205C179.061 47.7363 179.908 46.9454 181.083 46.9454C182.23 46.9454 182.925 47.6968 182.925 48.9566V54.2728H184.614V48.7532C184.614 46.6064 183.433 45.4822 181.659 45.4822C180.354 45.4822 179.501 46.0867 179.1 47.0075H178.993V45.5951H177.371V54.2728H179.061V49.1205ZM190.128 54.4423C191.71 54.4423 192.331 53.4762 192.636 52.9226H192.778V54.2728H194.427V42.7026H192.738V47.0019H192.636C192.331 46.4652 191.755 45.4822 190.139 45.4822C188.043 45.4822 186.501 47.1375 186.501 49.9509C186.501 52.7588 188.021 54.4423 190.128 54.4423ZM190.501 53.0017C188.993 53.0017 188.207 51.674 188.207 49.934C188.207 48.2109 188.976 46.9171 190.501 46.9171C191.975 46.9171 192.766 48.1205 192.766 49.934C192.766 51.7588 191.959 53.0017 190.501 53.0017ZM207.551 47.7137C207.201 46.3635 206.144 45.4822 204.269 45.4822C202.308 45.4822 200.919 46.516 200.919 48.0527C200.919 49.2843 201.664 50.1035 203.291 50.465L204.76 50.7871C205.596 50.9735 205.986 51.3464 205.986 51.8887C205.986 52.561 205.269 53.0864 204.162 53.0864C203.15 53.0864 202.501 52.6514 202.297 51.7983L200.664 52.0469C200.947 53.5836 202.224 54.448 204.173 54.448C206.269 54.448 207.721 53.335 207.721 51.7644C207.721 50.5385 206.941 49.7814 205.348 49.4142L203.969 49.0979C203.015 48.8719 202.602 48.5498 202.608 47.9623C202.602 47.2957 203.325 46.8211 204.286 46.8211C205.337 46.8211 205.822 47.403 206.02 47.9849L207.551 47.7137ZM213.629 45.5951H211.849V43.5161H210.16V45.5951H208.889V46.951H210.16V52.0752C210.154 53.6514 211.358 54.4141 212.691 54.3858C213.228 54.3802 213.589 54.2785 213.787 54.205L213.482 52.8096C213.369 52.8322 213.16 52.883 212.889 52.883C212.341 52.883 211.849 52.7023 211.849 51.7249V46.951H213.629V45.5951ZM216.565 57.527C217.96 57.527 218.842 56.7982 219.345 55.431L222.932 45.6121L221.107 45.5951L218.91 52.3294H218.819L216.622 45.5951H214.814L217.989 54.3858L217.78 54.9621C217.35 56.1146 216.746 56.2106 215.819 55.9564L215.413 57.3405C215.616 57.4309 216.057 57.527 216.565 57.527ZM226.213 42.7026H224.524V54.2728H226.213V42.7026ZM228.486 54.2728H230.175V45.5951H228.486V54.2728ZM229.339 44.2562C229.921 44.2562 230.406 43.8042 230.406 43.2506C230.406 42.6969 229.921 42.2393 229.339 42.2393C228.751 42.2393 228.271 42.6969 228.271 43.2506C228.271 43.8042 228.751 44.2562 229.339 44.2562ZM234.137 49.1205C234.137 47.7363 234.984 46.9454 236.159 46.9454C237.306 46.9454 238.001 47.6968 238.001 48.9566V54.2728H239.69V48.7532C239.69 46.6064 238.509 45.4822 236.735 45.4822C235.43 45.4822 234.577 46.0867 234.176 47.0075H234.069V45.5951H232.447V54.2728H234.137V49.1205ZM245.594 57.7077C247.803 57.7077 249.509 56.6965 249.509 54.4649V45.5951H247.854V47.0019H247.729C247.43 46.4652 246.831 45.4822 245.215 45.4822C243.119 45.4822 241.577 47.1375 241.577 49.9001C241.577 52.6684 243.153 54.1429 245.204 54.1429C246.797 54.1429 247.413 53.2446 247.718 52.691H247.825V54.3971C247.825 55.7587 246.893 56.3462 245.611 56.3462C244.204 56.3462 243.656 55.64 243.357 55.1429L241.905 55.7417C242.362 56.8038 243.52 57.7077 245.594 57.7077ZM245.577 52.7418C244.068 52.7418 243.283 51.5836 243.283 49.8775C243.283 48.2109 244.051 46.9171 245.577 46.9171C247.051 46.9171 247.842 48.1205 247.842 49.8775C247.842 51.6684 247.034 52.7418 245.577 52.7418ZM260.115 45.5951H258.245V44.8155C258.245 44.0472 258.561 43.6291 259.386 43.6291C259.736 43.6291 259.985 43.7082 260.143 43.759L260.538 42.3919C260.301 42.3015 259.809 42.1602 259.126 42.1602C257.753 42.1602 256.55 42.9625 256.55 44.5895V45.5951H255.211V46.951H256.55V54.2728H258.245V46.951H260.115V45.5951ZM265.171 54.448C267.617 54.448 269.216 52.6571 269.216 49.9735C269.216 47.2731 267.617 45.4822 265.171 45.4822C262.725 45.4822 261.126 47.2731 261.126 49.9735C261.126 52.6571 262.725 54.448 265.171 54.448ZM265.176 53.0299C263.578 53.0299 262.832 51.6345 262.832 49.9679C262.832 48.3069 263.578 46.8945 265.176 46.8945C266.764 46.8945 267.51 48.3069 267.51 49.9679C267.51 51.6345 266.764 53.0299 265.176 53.0299ZM271.101 54.2728H272.791V48.9736C272.791 47.838 273.666 47.0188 274.864 47.0188C275.214 47.0188 275.61 47.081 275.745 47.1205V45.5047C275.576 45.4822 275.243 45.4652 275.028 45.4652C274.011 45.4652 273.141 46.0415 272.825 46.9736H272.734V45.5951H271.101V54.2728ZM75.5089 65.7026H74.1078V69.8211H75.5089V65.7026ZM78.4127 65.7026H77.0117V69.8211H78.4127V65.7026ZM80.7163 65.7026V77.2728H82.3773V68.8946H82.4846L85.897 77.2559H87.2755L90.6878 68.9002H90.7951V77.2728H92.4561V65.7026H90.3375L86.654 74.6966H86.5184L82.8349 65.7026H80.7163ZM98.5138 77.448C100.96 77.448 102.559 75.6571 102.559 72.9735C102.559 70.2731 100.96 68.4822 98.5138 68.4822C96.0675 68.4822 94.4687 70.2731 94.4687 72.9735C94.4687 75.6571 96.0675 77.448 98.5138 77.448ZM98.5194 76.0299C96.9206 76.0299 96.1749 74.6345 96.1749 72.9679C96.1749 71.3069 96.9206 69.8945 98.5194 69.8945C100.107 69.8945 100.853 71.3069 100.853 72.9679C100.853 74.6345 100.107 76.0299 98.5194 76.0299ZM104.444 77.2728H106.134V71.9736C106.134 70.838 107.009 70.0188 108.207 70.0188C108.557 70.0188 108.953 70.081 109.088 70.1205V68.5047C108.919 68.4822 108.586 68.4652 108.371 68.4652C107.354 68.4652 106.484 69.0415 106.167 69.9736H106.077V68.5951H104.444V77.2728ZM113.979 77.448C115.872 77.448 117.211 76.5158 117.595 75.1034L115.996 74.8153C115.691 75.6345 114.957 76.0525 113.996 76.0525C112.55 76.0525 111.578 75.1147 111.533 73.4424H117.702V72.8436C117.702 69.7081 115.827 68.4822 113.861 68.4822C111.443 68.4822 109.85 70.3239 109.85 72.9905C109.85 75.6853 111.42 77.448 113.979 77.448ZM111.539 72.1769C111.607 70.9453 112.499 69.8776 113.872 69.8776C115.183 69.8776 116.041 70.8493 116.047 72.1769H111.539ZM120.859 65.7026H119.458V69.8211H120.859V65.7026ZM123.763 65.7026H122.362V69.8211H123.763V65.7026ZM130.141 77.2728H131.831V71.9227C131.831 70.7533 132.65 69.9397 133.61 69.9397C134.548 69.9397 135.198 70.5612 135.198 71.5047V77.2728H136.881V71.7419C136.881 70.6968 137.52 69.9397 138.621 69.9397C139.514 69.9397 140.248 70.4369 140.248 71.612V77.2728H141.938V71.4538C141.938 69.4708 140.83 68.4822 139.26 68.4822C138.011 68.4822 137.073 69.081 136.655 70.0075H136.565C136.186 69.0584 135.39 68.4822 134.232 68.4822C133.085 68.4822 132.232 69.0528 131.87 70.0075H131.763V68.5951H130.141V77.2728ZM147.942 77.448C149.834 77.448 151.173 76.5158 151.557 75.1034L149.958 74.8153C149.653 75.6345 148.919 76.0525 147.959 76.0525C146.512 76.0525 145.541 75.1147 145.495 73.4424H151.665V72.8436C151.665 69.7081 149.789 68.4822 147.823 68.4822C145.405 68.4822 143.812 70.3239 143.812 72.9905C143.812 75.6853 145.382 77.448 147.942 77.448ZM145.501 72.1769C145.569 70.9453 146.461 69.8776 147.834 69.8776C149.145 69.8776 150.004 70.8493 150.009 72.1769H145.501ZM155.228 72.1205C155.228 70.7363 156.075 69.9454 157.251 69.9454C158.397 69.9454 159.092 70.6968 159.092 71.9566V77.2728H160.782V71.7532C160.782 69.6064 159.601 68.4822 157.827 68.4822C156.522 68.4822 155.669 69.0867 155.268 70.0075H155.16V68.5951H153.539V77.2728H155.228V72.1205ZM168.544 73.6741C168.55 75.1486 167.454 75.8491 166.505 75.8491C165.459 75.8491 164.736 75.0921 164.736 73.9114V68.5951H163.047V74.1147C163.047 76.2672 164.228 77.3858 165.894 77.3858C167.199 77.3858 168.086 76.6966 168.488 75.7701H168.578V77.2728H170.239V68.5951H168.544V73.6741ZM176.854 77.2728H178.504V75.9226H178.645C178.95 76.4762 179.572 77.4423 181.154 77.4423C183.255 77.4423 184.781 75.7588 184.781 72.9509C184.781 70.1375 183.233 68.4822 181.137 68.4822C179.527 68.4822 178.945 69.4652 178.645 70.0019H178.544V65.7026H176.854V77.2728ZM178.51 72.934C178.51 71.1205 179.301 69.9171 180.775 69.9171C182.306 69.9171 183.075 71.2109 183.075 72.934C183.075 74.674 182.284 76.0017 180.775 76.0017C179.323 76.0017 178.51 74.7588 178.51 72.934ZM189.203 77.4649C190.638 77.4649 191.446 76.7361 191.768 76.0864H191.836V77.2728H193.485V71.5103C193.485 68.985 191.497 68.4822 190.118 68.4822C188.548 68.4822 187.101 69.1149 186.536 70.6968L188.124 71.0583C188.372 70.4425 189.005 69.8493 190.141 69.8493C191.231 69.8493 191.79 70.4199 191.79 71.403V71.4425C191.79 72.0583 191.158 72.047 189.598 72.2278C187.954 72.4199 186.271 72.8492 186.271 74.8209C186.271 76.5271 187.553 77.4649 189.203 77.4649ZM189.57 76.109C188.615 76.109 187.926 75.6797 187.926 74.8435C187.926 73.9396 188.728 73.6176 189.706 73.4876C190.254 73.4142 191.553 73.2673 191.796 73.0244V74.143C191.796 75.1712 190.977 76.109 189.57 76.109ZM195.735 77.2728H197.424V71.9736C197.424 70.838 198.3 70.0188 199.498 70.0188C199.848 70.0188 200.244 70.081 200.379 70.1205V68.5047C200.21 68.4822 199.876 68.4652 199.662 68.4652C198.645 68.4652 197.775 69.0415 197.458 69.9736H197.368V68.5951H195.735V77.2728Z" fill="#101010"/>
</g>
<g clip-path="url(#clip4_113_551)">
<rect width="22.7273" height="22.7273" transform="translate(327.636 37.2728)" fill="white"/>
<path d="M334 48.6364C334 47.3812 332.983 46.3636 331.727 46.3636C330.472 46.3636 329.455 47.3812 329.455 48.6364C329.455 49.8916 330.472 50.9091 331.727 50.9091C332.983 50.9091 334 49.8916 334 48.6364Z" fill="#949494"/>
<path d="M341.273 48.6364C341.273 47.3812 340.255 46.3636 339 46.3636C337.745 46.3636 336.727 47.3812 336.727 48.6364C336.727 49.8916 337.745 50.9091 339 50.9091C340.255 50.9091 341.273 49.8916 341.273 48.6364Z" fill="#949494"/>
<path d="M348.546 48.6364C348.546 47.3812 347.528 46.3636 346.273 46.3636C345.018 46.3636 344 47.3812 344 48.6364C344 49.8916 345.018 50.9091 346.273 50.9091C347.528 50.9091 348.546 49.8916 348.546 48.6364Z" fill="#949494"/>
</g>
</g>
<g clip-path="url(#clip5_113_551)">
<g clip-path="url(#clip6_113_551)">
<path d="M57.1818 94.6592H48.0909C45.8943 94.6592 44.1136 96.4399 44.1136 98.6365V107.727C44.1136 109.924 45.8943 111.705 48.0909 111.705H57.1818C59.3784 111.705 61.159 109.924 61.159 107.727V98.6365C61.159 96.4399 59.3784 94.6592 57.1818 94.6592Z" fill="white" stroke="#AEAEAE" stroke-width="1.13636"/>
<path d="M74.362 97.248V108.818H76.023V100.44H76.1303L79.5427 108.801H80.9211L84.3335 100.446H84.4408V108.818H86.1018V97.248H83.9832L80.2997 106.242H80.1641L76.4806 97.248H74.362ZM91.0296 109.01C92.4646 109.01 93.2724 108.282 93.5945 107.632H93.6623V108.818H95.3119V103.056C95.3119 100.53 93.3233 100.028 91.9448 100.028C90.3742 100.028 88.9279 100.66 88.363 102.242L89.9505 102.604C90.1991 101.988 90.8318 101.395 91.9674 101.395C93.0578 101.395 93.6171 101.965 93.6171 102.948V102.988C93.6171 103.604 92.9843 103.592 91.425 103.773C89.781 103.965 88.0975 104.395 88.0975 106.366C88.0975 108.072 89.3799 109.01 91.0296 109.01ZM91.3968 107.654C90.442 107.654 89.7528 107.225 89.7528 106.389C89.7528 105.485 90.555 105.163 91.5324 105.033C92.0804 104.96 93.3798 104.813 93.6227 104.57V105.688C93.6227 106.717 92.8035 107.654 91.3968 107.654ZM97.5618 108.818H99.2511V105.739L100.093 104.897L103.042 108.818H105.115L101.364 103.864L104.878 100.141H102.855L99.3979 103.813H99.2511V97.248H97.5618V108.818ZM109.8 108.993C111.693 108.993 113.032 108.061 113.416 106.649L111.817 106.361C111.512 107.18 110.778 107.598 109.817 107.598C108.371 107.598 107.399 106.66 107.354 104.988H113.523V104.389C113.523 101.254 111.648 100.028 109.682 100.028C107.264 100.028 105.67 101.869 105.67 104.536C105.67 107.231 107.241 108.993 109.8 108.993ZM107.36 103.722C107.427 102.491 108.32 101.423 109.693 101.423C111.003 101.423 111.862 102.395 111.868 103.722H107.36ZM122.133 109.01C123.568 109.01 124.376 108.282 124.698 107.632H124.766V108.818H126.415V103.056C126.415 100.53 124.427 100.028 123.048 100.028C121.478 100.028 120.031 100.66 119.467 102.242L121.054 102.604C121.303 101.988 121.935 101.395 123.071 101.395C124.161 101.395 124.721 101.965 124.721 102.948V102.988C124.721 103.604 124.088 103.592 122.529 103.773C120.885 103.965 119.201 104.395 119.201 106.366C119.201 108.072 120.483 109.01 122.133 109.01ZM122.5 107.654C121.546 107.654 120.856 107.225 120.856 106.389C120.856 105.485 121.659 105.163 122.636 105.033C123.184 104.96 124.483 104.813 124.726 104.57V105.688C124.726 106.717 123.907 107.654 122.5 107.654ZM134.565 97.248H132.876V108.818H134.565V97.248ZM139.363 109.01C140.798 109.01 141.606 108.282 141.928 107.632H141.995V108.818H143.645V103.056C143.645 100.53 141.656 100.028 140.278 100.028C138.707 100.028 137.261 100.66 136.696 102.242L138.284 102.604C138.532 101.988 139.165 101.395 140.301 101.395C141.391 101.395 141.95 101.965 141.95 102.948V102.988C141.95 103.604 141.317 103.592 139.758 103.773C138.114 103.965 136.431 104.395 136.431 106.366C136.431 108.072 137.713 109.01 139.363 109.01ZM139.73 107.654C138.775 107.654 138.086 107.225 138.086 106.389C138.086 105.485 138.888 105.163 139.866 105.033C140.414 104.96 141.713 104.813 141.956 104.57V105.688C141.956 106.717 141.137 107.654 139.73 107.654ZM147.584 103.666C147.584 102.282 148.432 101.491 149.607 101.491C150.754 101.491 151.449 102.242 151.449 103.502V108.818H153.138V103.299C153.138 101.152 151.957 100.028 150.183 100.028C148.878 100.028 148.025 100.632 147.624 101.553H147.516V100.141H145.895V108.818H147.584V103.666ZM158.652 108.988C160.234 108.988 160.855 108.022 161.16 107.468H161.301V108.818H162.951V97.248H161.262V101.547H161.16C160.855 101.011 160.279 100.028 158.663 100.028C156.567 100.028 155.025 101.683 155.025 104.496C155.025 107.304 156.544 108.988 158.652 108.988ZM159.025 107.547C157.516 107.547 156.731 106.219 156.731 104.479C156.731 102.756 157.499 101.463 159.025 101.463C160.499 101.463 161.29 102.666 161.29 104.479C161.29 106.304 160.482 107.547 159.025 107.547ZM165.362 108.818H167.051V100.141H165.362V108.818ZM166.215 98.8016C166.797 98.8016 167.283 98.3496 167.283 97.796C167.283 97.2423 166.797 96.7847 166.215 96.7847C165.627 96.7847 165.147 97.2423 165.147 97.796C165.147 98.3496 165.627 98.8016 166.215 98.8016ZM171.013 103.666C171.013 102.282 171.86 101.491 173.035 101.491C174.182 101.491 174.877 102.242 174.877 103.502V108.818H176.566V103.299C176.566 101.152 175.386 100.028 173.612 100.028C172.307 100.028 171.454 100.632 171.052 101.553H170.945V100.141H169.324V108.818H171.013V103.666ZM182.47 112.253C184.679 112.253 186.385 111.242 186.385 109.01V100.141H184.73V101.547H184.606C184.306 101.011 183.707 100.028 182.092 100.028C179.996 100.028 178.453 101.683 178.453 104.445C178.453 107.214 180.03 108.688 182.08 108.688C183.673 108.688 184.289 107.79 184.594 107.236H184.702V108.943C184.702 110.304 183.77 110.892 182.487 110.892C181.08 110.892 180.532 110.185 180.233 109.688L178.781 110.287C179.239 111.349 180.397 112.253 182.47 112.253ZM182.453 107.287C180.945 107.287 180.159 106.129 180.159 104.423C180.159 102.756 180.928 101.463 182.453 101.463C183.928 101.463 184.719 102.666 184.719 104.423C184.719 106.214 183.911 107.287 182.453 107.287ZM192.861 112.072H194.55V107.468H194.652C194.957 108.022 195.578 108.988 197.16 108.988C199.262 108.988 200.787 107.304 200.787 104.496C200.787 101.683 199.239 100.028 197.143 100.028C195.533 100.028 194.951 101.011 194.652 101.547H194.511V100.141H192.861V112.072ZM194.516 104.479C194.516 102.666 195.307 101.463 196.782 101.463C198.313 101.463 199.081 102.756 199.081 104.479C199.081 106.219 198.29 107.547 196.782 107.547C195.33 107.547 194.516 106.304 194.516 104.479ZM205.205 109.01C206.64 109.01 207.448 108.282 207.77 107.632H207.838V108.818H209.488V103.056C209.488 100.53 207.499 100.028 206.12 100.028C204.55 100.028 203.104 100.66 202.539 102.242L204.126 102.604C204.375 101.988 205.008 101.395 206.143 101.395C207.233 101.395 207.793 101.965 207.793 102.948V102.988C207.793 103.604 207.16 103.592 205.601 103.773C203.957 103.965 202.273 104.395 202.273 106.366C202.273 108.072 203.556 109.01 205.205 109.01ZM205.572 107.654C204.618 107.654 203.928 107.225 203.928 106.389C203.928 105.485 204.731 105.163 205.708 105.033C206.256 104.96 207.555 104.813 207.798 104.57V105.688C207.798 106.717 206.979 107.654 205.572 107.654ZM215.376 112.253C217.585 112.253 219.291 111.242 219.291 109.01V100.141H217.636V101.547H217.511C217.212 101.011 216.613 100.028 214.997 100.028C212.901 100.028 211.359 101.683 211.359 104.445C211.359 107.214 212.935 108.688 214.986 108.688C216.579 108.688 217.195 107.79 217.5 107.236H217.607V108.943C217.607 110.304 216.675 110.892 215.393 110.892C213.986 110.892 213.438 110.185 213.139 109.688L211.687 110.287C212.144 111.349 213.302 112.253 215.376 112.253ZM215.359 107.287C213.85 107.287 213.065 106.129 213.065 104.423C213.065 102.756 213.834 101.463 215.359 101.463C216.833 101.463 217.624 102.666 217.624 104.423C217.624 106.214 216.816 107.287 215.359 107.287ZM225.296 108.993C227.189 108.993 228.528 108.061 228.912 106.649L227.313 106.361C227.008 107.18 226.274 107.598 225.313 107.598C223.867 107.598 222.895 106.66 222.85 104.988H229.019V104.389C229.019 101.254 227.144 100.028 225.178 100.028C222.76 100.028 221.167 101.869 221.167 104.536C221.167 107.231 222.737 108.993 225.296 108.993ZM222.856 103.722C222.924 102.491 223.816 101.423 225.189 101.423C226.5 101.423 227.358 102.395 227.364 103.722H222.856Z" fill="#101010"/>
</g>
<g clip-path="url(#clip7_113_551)">
<rect width="22.7273" height="22.7273" transform="translate(327.636 91.8182)" fill="white"/>
<path d="M334 103.182C334 101.927 332.983 100.909 331.727 100.909C330.472 100.909 329.455 101.927 329.455 103.182C329.455 104.437 330.472 105.455 331.727 105.455C332.983 105.455 334 104.437 334 103.182Z" fill="#949494"/>
<path d="M341.273 103.182C341.273 101.927 340.255 100.909 339 100.909C337.745 100.909 336.727 101.927 336.727 103.182C336.727 104.437 337.745 105.455 339 105.455C340.255 105.455 341.273 104.437 341.273 103.182Z" fill="#949494"/>
<path d="M348.546 103.182C348.546 101.927 347.528 100.909 346.273 100.909C345.018 100.909 344 101.927 344 103.182C344 104.437 345.018 105.455 346.273 105.455C347.528 105.455 348.546 104.437 348.546 103.182Z" fill="#949494"/>
</g>
</g>
<g clip-path="url(#clip8_113_551)">
<rect width="115.909" height="22.7273" transform="translate(41.2728 123.636)" fill="white"/>
<path fill-rule="evenodd" clip-rule="evenodd" d="M52.7784 129.318C53.4844 129.318 54.0568 129.827 54.0568 130.455V139.546C54.0568 140.173 53.4844 140.682 52.7784 140.682C52.0724 140.682 51.5 140.173 51.5 139.546V130.455C51.5 129.827 52.0724 129.318 52.7784 129.318Z" fill="#949494"/>
<path fill-rule="evenodd" clip-rule="evenodd" d="M46.9545 134.858C46.9545 134.152 47.4633 133.58 48.0909 133.58H57.1818C57.8094 133.58 58.3182 134.152 58.3182 134.858C58.3182 135.564 57.8094 136.136 57.1818 136.136H48.0909C47.4633 136.136 46.9545 135.564 46.9545 134.858Z" fill="#949494"/>
<path d="M76.0908 140.636L76.9495 137.998H81.1245L81.9832 140.636H84.6046L80.6161 129.066H77.4636L73.4694 140.636H76.0908ZM77.571 136.088L78.9946 131.71H79.085L80.5087 136.088H77.571ZM88.6264 140.778C90.0275 140.778 90.7563 139.97 91.0896 139.247H91.1913V140.636H93.5641V129.066H91.1631V133.416H91.0896C90.7676 132.71 90.0727 131.846 88.6208 131.846C86.7169 131.846 85.1068 133.326 85.1068 136.309C85.1068 139.213 86.6491 140.778 88.6264 140.778ZM89.3891 138.862C88.2084 138.862 87.5643 137.812 87.5643 136.298C87.5643 134.795 88.1971 133.761 89.3891 133.761C90.5586 133.761 91.2139 134.75 91.2139 136.298C91.2139 137.845 90.5473 138.862 89.3891 138.862ZM98.6212 140.778C100.022 140.778 100.751 139.97 101.084 139.247H101.186V140.636H103.559V129.066H101.158V133.416H101.084C100.762 132.71 100.067 131.846 98.6155 131.846C96.7116 131.846 95.1015 133.326 95.1015 136.309C95.1015 139.213 96.6438 140.778 98.6212 140.778ZM99.3839 138.862C98.2031 138.862 97.5591 137.812 97.5591 136.298C97.5591 134.795 98.1918 133.761 99.3839 133.761C100.553 133.761 101.209 134.75 101.209 136.298C101.209 137.845 100.542 138.862 99.3839 138.862ZM111.456 140.8C112.738 140.8 113.569 140.241 113.992 139.433H114.06V140.636H116.342V134.783C116.342 132.716 114.591 131.846 112.659 131.846C110.58 131.846 109.213 132.84 108.879 134.422L111.105 134.603C111.269 134.026 111.783 133.603 112.648 133.603C113.467 133.603 113.936 134.015 113.936 134.727V134.761C113.936 135.32 113.343 135.394 111.834 135.54C110.117 135.699 108.574 136.275 108.574 138.213C108.574 139.93 109.8 140.8 111.456 140.8ZM112.145 139.139C111.405 139.139 110.874 138.795 110.874 138.134C110.874 137.456 111.433 137.122 112.28 137.004C112.806 136.93 113.665 136.806 113.953 136.614V137.535C113.953 138.444 113.201 139.139 112.145 139.139ZM126.269 131.959H124.636V129.88H122.229V131.959H121.043V133.767H122.229V138.286C122.218 139.987 123.376 140.828 125.122 140.755C125.743 140.732 126.184 140.608 126.427 140.529L126.048 138.738C125.93 138.761 125.676 138.817 125.45 138.817C124.969 138.817 124.636 138.636 124.636 137.97V133.767H126.269V131.959ZM131.545 140.806C134.177 140.806 135.816 139.004 135.816 136.331C135.816 133.642 134.177 131.846 131.545 131.846C128.912 131.846 127.274 133.642 127.274 136.331C127.274 139.004 128.912 140.806 131.545 140.806ZM131.556 138.941C130.341 138.941 129.72 137.829 129.72 136.314C129.72 134.8 130.341 133.682 131.556 133.682C132.748 133.682 133.37 134.8 133.37 136.314C133.37 137.829 132.748 138.941 131.556 138.941ZM140.459 140.778C141.86 140.778 142.589 139.97 142.922 139.247H143.024V140.636H145.397V129.066H142.996V133.416H142.922C142.6 132.71 141.905 131.846 140.453 131.846C138.549 131.846 136.939 133.326 136.939 136.309C136.939 139.213 138.482 140.778 140.459 140.778ZM141.222 138.862C140.041 138.862 139.397 137.812 139.397 136.298C139.397 134.795 140.03 133.761 141.222 133.761C142.391 133.761 143.046 134.75 143.046 136.298C143.046 137.845 142.38 138.862 141.222 138.862ZM151.177 140.806C153.81 140.806 155.448 139.004 155.448 136.331C155.448 133.642 153.81 131.846 151.177 131.846C148.544 131.846 146.906 133.642 146.906 136.331C146.906 139.004 148.544 140.806 151.177 140.806ZM151.188 138.941C149.974 138.941 149.352 137.829 149.352 136.314C149.352 134.8 149.974 133.682 151.188 133.682C152.38 133.682 153.002 134.8 153.002 136.314C153.002 137.829 152.38 138.941 151.188 138.941Z" fill="#949494"/>
</g>
</g>
<g clip-path="url(#clip9_113_551)">
<g clip-path="url(#clip10_113_551)">
<g clip-path="url(#clip11_113_551)">
<path fill-rule="evenodd" clip-rule="evenodd" d="M48.0909 175.909C45.5805 175.909 43.5454 177.944 43.5454 180.455V189.546C43.5454 192.056 45.5805 194.091 48.0909 194.091H57.1818C59.6921 194.091 61.7272 192.056 61.7272 189.546V180.455C61.7272 177.944 59.6921 175.909 57.1818 175.909H48.0909ZM57.569 183.577C58.0381 183.049 57.9906 182.241 57.4629 181.772C56.9352 181.303 56.1271 181.35 55.6581 181.878L53.3854 184.435L52.0134 185.978L50.1312 184.096C49.632 183.597 48.8225 183.597 48.3233 184.096C47.824 184.595 47.824 185.405 48.3233 185.904L51.1642 188.745C51.4131 188.994 51.7538 189.129 52.1057 189.119C52.4576 189.108 52.7897 188.953 53.0236 188.69L55.2963 186.133L57.569 183.577Z" fill="#4AB393"/>
<path d="M74.2712 190.636H75.8922V186.571H78.0955C78.1322 186.571 78.1637 186.571 78.2004 186.571L80.3828 190.636H82.2293L79.8477 186.287C81.1644 185.8 81.8202 184.703 81.8202 183.26C81.8202 181.283 80.5926 179.893 78.1007 179.893H74.2712V190.636ZM75.8922 185.175V181.283H77.9276C79.5277 181.283 80.1887 182.043 80.1887 183.26C80.1887 184.472 79.5277 185.175 77.9486 185.175H75.8922ZM87.0386 190.799C88.796 190.799 90.0393 189.933 90.3961 188.622L88.9114 188.354C88.6282 189.115 87.9462 189.503 87.0544 189.503C85.7114 189.503 84.8091 188.632 84.7671 187.08H90.4957V186.523C90.4957 183.612 88.7541 182.474 86.9284 182.474C84.6832 182.474 83.2038 184.184 83.2038 186.66C83.2038 189.162 84.6622 190.799 87.0386 190.799ZM84.7723 185.904C84.8353 184.761 85.6642 183.769 86.9389 183.769C88.156 183.769 88.9534 184.672 88.9587 185.904H84.7723ZM92.2361 193.658H93.8046V189.383H93.8991C94.1824 189.897 94.7594 190.794 96.2283 190.794C98.1798 190.794 99.5962 189.23 99.5962 186.623C99.5962 184.011 98.1588 182.474 96.2126 182.474C94.7174 182.474 94.1771 183.386 93.8991 183.885H93.7679V182.579H92.2361V193.658ZM93.7732 186.607C93.7732 184.923 94.5076 183.806 95.8768 183.806C97.2985 183.806 98.0119 185.007 98.0119 186.607C98.0119 188.223 97.2775 189.456 95.8768 189.456C94.5286 189.456 93.7732 188.302 93.7732 186.607ZM102.922 179.893H101.354V190.636H102.922V179.893ZM107.377 190.815C108.71 190.815 109.46 190.138 109.759 189.535H109.822V190.636H111.354V185.285C111.354 182.94 109.507 182.474 108.227 182.474C106.769 182.474 105.426 183.061 104.901 184.53L106.375 184.866C106.606 184.294 107.194 183.743 108.248 183.743C109.261 183.743 109.78 184.273 109.78 185.186V185.222C109.78 185.794 109.192 185.784 107.745 185.952C106.218 186.13 104.655 186.529 104.655 188.36C104.655 189.944 105.846 190.815 107.377 190.815ZM107.718 189.556C106.832 189.556 106.192 189.157 106.192 188.381C106.192 187.541 106.937 187.242 107.844 187.122C108.353 187.053 109.56 186.917 109.785 186.691V187.73C109.785 188.685 109.025 189.556 107.718 189.556ZM116.837 190.799C118.741 190.799 119.974 189.655 120.147 188.087H118.621C118.421 188.958 117.745 189.472 116.848 189.472C115.52 189.472 114.665 188.365 114.665 186.607C114.665 184.881 115.536 183.796 116.848 183.796C117.844 183.796 118.453 184.425 118.621 185.181H120.147C119.98 183.554 118.652 182.474 116.821 182.474C114.55 182.474 113.081 184.184 113.081 186.644C113.081 189.073 114.497 190.799 116.837 190.799ZM125.298 190.799C127.055 190.799 128.298 189.933 128.655 188.622L127.17 188.354C126.887 189.115 126.205 189.503 125.313 189.503C123.97 189.503 123.068 188.632 123.026 187.08H128.755V186.523C128.755 183.612 127.013 182.474 125.188 182.474C122.942 182.474 121.463 184.184 121.463 186.66C121.463 189.162 122.921 190.799 125.298 190.799ZM123.031 185.904C123.094 184.761 123.923 183.769 125.198 183.769C126.415 183.769 127.212 184.672 127.218 185.904H123.031ZM140.443 184.546C140.118 183.292 139.137 182.474 137.395 182.474C135.575 182.474 134.284 183.434 134.284 184.861C134.284 186.004 134.977 186.765 136.487 187.101L137.851 187.4C138.628 187.573 138.99 187.919 138.99 188.423C138.99 189.047 138.323 189.535 137.295 189.535C136.356 189.535 135.753 189.131 135.564 188.339L134.048 188.569C134.31 189.996 135.496 190.799 137.306 190.799C139.252 190.799 140.6 189.766 140.6 188.307C140.6 187.169 139.876 186.466 138.397 186.125L137.117 185.831C136.23 185.621 135.847 185.322 135.853 184.777C135.847 184.158 136.519 183.717 137.411 183.717C138.386 183.717 138.838 184.257 139.021 184.798L140.443 184.546ZM143.893 185.852C143.893 184.567 144.707 183.832 145.824 183.832C146.905 183.832 147.55 184.52 147.55 185.7V190.636H149.118V185.511C149.118 183.502 148.017 182.474 146.359 182.474C145.105 182.474 144.35 183.019 143.972 183.89H143.872V179.893H142.325V190.636H143.893V185.852ZM154.606 190.799C156.877 190.799 158.362 189.136 158.362 186.644C158.362 184.137 156.877 182.474 154.606 182.474C152.334 182.474 150.85 184.137 150.85 186.644C150.85 189.136 152.334 190.799 154.606 190.799ZM154.611 189.482C153.126 189.482 152.434 188.186 152.434 186.639C152.434 185.097 153.126 183.785 154.611 183.785C156.085 183.785 156.778 185.097 156.778 186.639C156.778 188.186 156.085 189.482 154.611 189.482ZM161.614 190.636H163.209L164.846 184.819H164.967L166.603 190.636H168.203L170.569 182.579H168.948L167.38 188.47H167.301L165.727 182.579H164.106L162.522 188.496H162.443L160.864 182.579H159.243L161.614 190.636ZM179.093 179.893V186.828C179.093 188.286 178.086 189.335 176.449 189.335C174.817 189.335 173.805 188.286 173.805 186.828V179.893H172.184V186.959C172.184 189.215 173.873 190.815 176.449 190.815C179.025 190.815 180.719 189.215 180.719 186.959V179.893H179.093ZM184.697 179.893H183.076V190.636H184.697V179.893ZM194.235 190.799C196.14 190.799 197.372 189.655 197.546 188.087H196.019C195.82 188.958 195.143 189.472 194.246 189.472C192.919 189.472 192.063 188.365 192.063 186.607C192.063 184.881 192.934 183.796 194.246 183.796C195.243 183.796 195.851 184.425 196.019 185.181H197.546C197.378 183.554 196.05 182.474 194.22 182.474C191.948 182.474 190.479 184.184 190.479 186.644C190.479 189.073 191.896 190.799 194.235 190.799ZM201.568 190.815C202.9 190.815 203.651 190.138 203.95 189.535H204.013V190.636H205.544V185.285C205.544 182.94 203.698 182.474 202.418 182.474C200.959 182.474 199.616 183.061 199.092 184.53L200.566 184.866C200.797 184.294 201.384 183.743 202.439 183.743C203.451 183.743 203.971 184.273 203.971 185.186V185.222C203.971 185.794 203.383 185.784 201.935 185.952C200.409 186.13 198.845 186.529 198.845 188.36C198.845 189.944 200.036 190.815 201.568 190.815ZM201.909 189.556C201.022 189.556 200.382 189.157 200.382 188.381C200.382 187.541 201.127 187.242 202.035 187.122C202.544 187.053 203.75 186.917 203.976 186.691V187.73C203.976 188.685 203.215 189.556 201.909 189.556ZM209.202 179.893H207.634V190.636H209.202V179.893ZM212.881 179.893H211.312V190.636H212.881V179.893ZM221.029 184.546C220.704 183.292 219.723 182.474 217.981 182.474C216.161 182.474 214.87 183.434 214.87 184.861C214.87 186.004 215.563 186.765 217.074 187.101L218.438 187.4C219.214 187.573 219.576 187.919 219.576 188.423C219.576 189.047 218.91 189.535 217.882 189.535C216.943 189.535 216.339 189.131 216.15 188.339L214.634 188.569C214.897 189.996 216.082 190.799 217.892 190.799C219.838 190.799 221.187 189.766 221.187 188.307C221.187 187.169 220.463 186.466 218.983 186.125L217.703 185.831C216.817 185.621 216.434 185.322 216.439 184.777C216.434 184.158 217.105 183.717 217.997 183.717C218.973 183.717 219.424 184.257 219.608 184.798L221.029 184.546ZM228.568 190.636H230.163L231.799 184.819H231.92L233.557 190.636H235.157L237.523 182.579H235.902L234.333 188.47H234.254L232.681 182.579H231.06L229.475 188.496H229.397L227.818 182.579H226.197L228.568 190.636ZM239.011 190.636H240.58V182.579H239.011V190.636ZM239.803 181.335C240.344 181.335 240.795 180.916 240.795 180.401C240.795 179.887 240.344 179.462 239.803 179.462C239.258 179.462 238.812 179.887 238.812 180.401C238.812 180.916 239.258 181.335 239.803 181.335ZM246.451 182.579H244.799V180.648H243.23V182.579H242.05V183.838H243.23V188.596C243.225 190.059 244.342 190.768 245.581 190.741C246.079 190.736 246.415 190.642 246.598 190.573L246.315 189.278C246.21 189.299 246.016 189.346 245.764 189.346C245.255 189.346 244.799 189.178 244.799 188.27V183.838H246.451V182.579ZM249.928 185.852C249.928 184.567 250.741 183.832 251.859 183.832C252.939 183.832 253.585 184.52 253.585 185.7V190.636H255.153V185.511C255.153 183.502 254.051 182.474 252.394 182.474C251.14 182.474 250.385 183.019 250.007 183.89H249.907V179.893H248.36V190.636H249.928V185.852ZM74.1453 215.658H75.7138V211.383H75.8082C76.0915 211.897 76.6686 212.794 78.1375 212.794C80.089 212.794 81.5054 211.23 81.5054 208.623C81.5054 206.011 80.068 204.474 78.1217 204.474C76.6266 204.474 76.0863 205.386 75.8082 205.885H75.6771V204.579H74.1453V215.658ZM75.6823 208.607C75.6823 206.923 76.4168 205.806 77.786 205.806C79.2077 205.806 79.9211 207.007 79.9211 208.607C79.9211 210.223 79.1867 211.456 77.786 211.456C76.4378 211.456 75.6823 210.302 75.6823 208.607ZM86.657 212.799C88.9285 212.799 90.4131 211.136 90.4131 208.644C90.4131 206.137 88.9285 204.474 86.657 204.474C84.3855 204.474 82.9008 206.137 82.9008 208.644C82.9008 211.136 84.3855 212.799 86.657 212.799ZM86.6622 211.482C85.1776 211.482 84.4851 210.186 84.4851 208.639C84.4851 207.097 85.1776 205.785 86.6622 205.785C88.1363 205.785 88.8288 207.097 88.8288 208.639C88.8288 210.186 88.1363 211.482 86.6622 211.482ZM92.164 212.636H93.7325V204.579H92.164V212.636ZM92.9561 203.335C93.4964 203.335 93.9476 202.916 93.9476 202.401C93.9476 201.887 93.4964 201.462 92.9561 201.462C92.4105 201.462 91.9646 201.887 91.9646 202.401C91.9646 202.916 92.4105 203.335 92.9561 203.335ZM97.4113 207.852C97.4113 206.567 98.1982 205.832 99.2893 205.832C100.354 205.832 101 206.53 101 207.7V212.636H102.568V207.511C102.568 205.518 101.472 204.474 99.8244 204.474C98.6126 204.474 97.8205 205.035 97.448 205.89H97.3483V204.579H95.8427V212.636H97.4113V207.852ZM108.433 204.579H106.781V202.648H105.212V204.579H104.032V205.838H105.212V210.596C105.207 212.059 106.324 212.768 107.562 212.741C108.061 212.736 108.396 212.642 108.58 212.573L108.297 211.278C108.192 211.299 107.998 211.346 107.746 211.346C107.237 211.346 106.781 211.178 106.781 210.27V205.838H108.433V204.579ZM113.555 212.799C115.312 212.799 116.555 211.933 116.912 210.622L115.427 210.354C115.144 211.115 114.462 211.503 113.57 211.503C112.227 211.503 111.325 210.632 111.283 209.08H117.012V208.523C117.012 205.612 115.27 204.474 113.444 204.474C111.199 204.474 109.72 206.184 109.72 208.66C109.72 211.162 111.178 212.799 113.555 212.799ZM111.288 207.904C111.351 206.761 112.18 205.769 113.455 205.769C114.672 205.769 115.469 206.672 115.475 207.904H111.288ZM118.752 212.636H120.321V207.716C120.321 206.661 121.134 205.9 122.246 205.9C122.571 205.9 122.938 205.958 123.064 205.995V204.495C122.907 204.474 122.597 204.458 122.398 204.458C121.454 204.458 120.646 204.993 120.352 205.859H120.268V204.579H118.752V212.636ZM130.46 206.546C130.134 205.292 129.153 204.474 127.412 204.474C125.591 204.474 124.301 205.434 124.301 206.861C124.301 208.004 124.993 208.765 126.504 209.101L127.868 209.4C128.645 209.573 129.007 209.919 129.007 210.423C129.007 211.047 128.34 211.535 127.312 211.535C126.373 211.535 125.77 211.131 125.581 210.339L124.065 210.569C124.327 211.996 125.513 212.799 127.323 212.799C129.269 212.799 130.617 211.766 130.617 210.307C130.617 209.169 129.893 208.466 128.414 208.125L127.134 207.831C126.247 207.621 125.864 207.322 125.869 206.777C125.864 206.158 126.536 205.717 127.428 205.717C128.403 205.717 128.854 206.257 129.038 206.798L130.46 206.546ZM140.013 204.579H138.36V202.648H136.792V204.579H135.611V205.838H136.792V210.596C136.786 212.059 137.904 212.768 139.142 212.741C139.64 212.736 139.976 212.642 140.16 212.573L139.876 211.278C139.771 211.299 139.577 211.346 139.325 211.346C138.817 211.346 138.36 211.178 138.36 210.27V205.838H140.013V204.579ZM145.055 212.799C147.327 212.799 148.812 211.136 148.812 208.644C148.812 206.137 147.327 204.474 145.055 204.474C142.784 204.474 141.299 206.137 141.299 208.644C141.299 211.136 142.784 212.799 145.055 212.799ZM145.061 211.482C143.576 211.482 142.884 210.186 142.884 208.639C142.884 207.097 143.576 205.785 145.061 205.785C146.535 205.785 147.227 207.097 147.227 208.639C147.227 210.186 146.535 211.482 145.061 211.482ZM160.51 206.546C160.185 205.292 159.204 204.474 157.462 204.474C155.642 204.474 154.351 205.434 154.351 206.861C154.351 208.004 155.044 208.765 156.555 209.101L157.919 209.4C158.695 209.573 159.057 209.919 159.057 210.423C159.057 211.047 158.391 211.535 157.363 211.535C156.423 211.535 155.82 211.131 155.631 210.339L154.115 210.569C154.378 211.996 155.563 212.799 157.373 212.799C159.319 212.799 160.667 211.766 160.667 210.307C160.667 209.169 159.944 208.466 158.464 208.125L157.184 207.831C156.298 207.621 155.915 207.322 155.92 206.777C155.915 206.158 156.586 205.717 157.478 205.717C158.454 205.717 158.905 206.257 159.088 206.798L160.51 206.546ZM162.392 215.658H163.961V211.383H164.055C164.338 211.897 164.915 212.794 166.384 212.794C168.336 212.794 169.752 211.23 169.752 208.623C169.752 206.011 168.315 204.474 166.369 204.474C164.873 204.474 164.333 205.386 164.055 205.885H163.924V204.579H162.392V215.658ZM163.929 208.607C163.929 206.923 164.664 205.806 166.033 205.806C167.455 205.806 168.168 207.007 168.168 208.607C168.168 210.223 167.434 211.456 166.033 211.456C164.685 211.456 163.929 210.302 163.929 208.607ZM174.983 212.799C176.74 212.799 177.983 211.933 178.34 210.622L176.855 210.354C176.572 211.115 175.89 211.503 174.998 211.503C173.655 211.503 172.753 210.632 172.711 209.08H178.44V208.523C178.44 205.612 176.698 204.474 174.872 204.474C172.627 204.474 171.148 206.184 171.148 208.66C171.148 211.162 172.606 212.799 174.983 212.799ZM172.716 207.904C172.779 206.761 173.608 205.769 174.883 205.769C176.1 205.769 176.897 206.672 176.903 207.904H172.716ZM183.574 212.799C185.478 212.799 186.711 211.655 186.884 210.087H185.358C185.158 210.958 184.482 211.472 183.585 211.472C182.257 211.472 181.402 210.365 181.402 208.607C181.402 206.881 182.273 205.796 183.585 205.796C184.581 205.796 185.19 206.425 185.358 207.181H186.884C186.716 205.554 185.389 204.474 183.558 204.474C181.287 204.474 179.818 206.184 179.818 208.644C179.818 211.073 181.234 212.799 183.574 212.799ZM188.562 212.636H190.13V204.579H188.562V212.636ZM189.354 203.335C189.894 203.335 190.345 202.916 190.345 202.401C190.345 201.887 189.894 201.462 189.354 201.462C188.808 201.462 188.362 201.887 188.362 202.401C188.362 202.916 188.808 203.335 189.354 203.335ZM196.075 204.579H194.339V203.855C194.339 203.141 194.633 202.753 195.399 202.753C195.724 202.753 195.955 202.826 196.102 202.874L196.469 201.604C196.248 201.52 195.792 201.389 195.157 201.389C193.883 201.389 192.765 202.134 192.765 203.645V204.579H191.522V205.838H192.765V212.636H194.339V205.838H196.075V204.579ZM197.694 212.636H199.262V204.579H197.694V212.636ZM198.486 203.335C199.026 203.335 199.477 202.916 199.477 202.401C199.477 201.887 199.026 201.462 198.486 201.462C197.94 201.462 197.494 201.887 197.494 202.401C197.494 202.916 197.94 203.335 198.486 203.335ZM204.767 212.799C206.671 212.799 207.904 211.655 208.077 210.087H206.55C206.351 210.958 205.674 211.472 204.777 211.472C203.45 211.472 202.595 210.365 202.595 208.607C202.595 206.881 203.466 205.796 204.777 205.796C205.774 205.796 206.382 206.425 206.55 207.181H208.077C207.909 205.554 206.582 204.474 204.751 204.474C202.479 204.474 201.011 206.184 201.011 208.644C201.011 211.073 202.427 212.799 204.767 212.799ZM215.232 207.852C215.232 206.567 216.046 205.832 217.163 205.832C218.244 205.832 218.889 206.52 218.889 207.7V212.636H220.457V207.511C220.457 205.502 219.356 204.474 217.698 204.474C216.444 204.474 215.689 205.019 215.311 205.89H215.211V201.893H213.664V212.636H215.232V207.852ZM226.312 204.579H224.659V202.648H223.091V204.579H221.911V205.838H223.091V210.596C223.086 212.059 224.203 212.768 225.441 212.741C225.939 212.736 226.275 212.642 226.459 212.573L226.176 211.278C226.071 211.299 225.877 211.346 225.625 211.346C225.116 211.346 224.659 211.178 224.659 210.27V205.838H226.312V204.579ZM228.047 212.636H229.616V207.668C229.616 206.582 230.376 205.827 231.268 205.827C232.139 205.827 232.742 206.404 232.742 207.28V212.636H234.306V207.501C234.306 206.53 234.898 205.827 235.921 205.827C236.75 205.827 237.432 206.289 237.432 207.38V212.636H239.001V207.233C239.001 205.392 237.973 204.474 236.514 204.474C235.355 204.474 234.484 205.03 234.096 205.89H234.012C233.66 205.009 232.921 204.474 231.845 204.474C230.78 204.474 229.988 205.003 229.652 205.89H229.553V204.579H228.047V212.636ZM242.672 201.893H241.103V212.636H242.672V201.893ZM252.526 204.579H250.79V203.855C250.79 203.141 251.084 202.753 251.849 202.753C252.175 202.753 252.406 202.826 252.552 202.874L252.92 201.604C252.699 201.52 252.243 201.389 251.608 201.389C250.333 201.389 249.216 202.134 249.216 203.645V204.579H247.973V205.838H249.216V212.636H250.79V205.838H252.526V204.579ZM254.145 212.636H255.713V204.579H254.145V212.636ZM254.937 203.335C255.477 203.335 255.928 202.916 255.928 202.401C255.928 201.887 255.477 201.462 254.937 201.462C254.391 201.462 253.945 201.887 253.945 202.401C253.945 202.916 254.391 203.335 254.937 203.335ZM259.392 201.893H257.823V212.636H259.392V201.893ZM264.975 212.799C266.732 212.799 267.976 211.933 268.332 210.622L266.848 210.354C266.565 211.115 265.883 211.503 264.991 211.503C263.648 211.503 262.745 210.632 262.703 209.08H268.432V208.523C268.432 205.612 266.69 204.474 264.865 204.474C262.62 204.474 261.14 206.184 261.14 208.66C261.14 211.162 262.599 212.799 264.975 212.799ZM262.709 207.904C262.772 206.761 263.601 205.769 264.875 205.769C266.092 205.769 266.89 206.672 266.895 207.904H262.709ZM276.211 206.546C275.885 205.292 274.904 204.474 273.163 204.474C271.342 204.474 270.052 205.434 270.052 206.861C270.052 208.004 270.744 208.765 272.255 209.101L273.619 209.4C274.395 209.573 274.757 209.919 274.757 210.423C274.757 211.047 274.091 211.535 273.063 211.535C272.124 211.535 271.521 211.131 271.332 210.339L269.816 210.569C270.078 211.996 271.264 212.799 273.073 212.799C275.02 212.799 276.368 211.766 276.368 210.307C276.368 209.169 275.644 208.466 274.165 208.125L272.885 207.831C271.998 207.621 271.615 207.322 271.62 206.777C271.615 206.158 272.287 205.717 273.178 205.717C274.154 205.717 274.605 206.257 274.789 206.798L276.211 206.546Z" fill="#767676"/>
</g>
<g clip-path="url(#clip12_113_551)">
<rect width="22.7273" height="22.7273" transform="translate(327.636 173.636)" fill="white"/>
<path d="M334 185C334 183.745 332.983 182.727 331.727 182.727C330.472 182.727 329.455 183.745 329.455 185C329.455 186.255 330.472 187.273 331.727 187.273C332.983 187.273 334 186.255 334 185Z" fill="#949494"/>
<path d="M341.273 185C341.273 183.745 340.255 182.727 339 182.727C337.745 182.727 336.727 183.745 336.727 185C336.727 186.255 337.745 187.273 339 187.273C340.255 187.273 341.273 186.255 341.273 185Z" fill="#949494"/>
<path d="M348.545 185C348.545 183.745 347.528 182.727 346.273 182.727C345.017 182.727 344 183.745 344 185C344 186.255 345.017 187.273 346.273 187.273C347.528 187.273 348.545 186.255 348.545 185Z" fill="#949494"/>
</g>
</g>
<g clip-path="url(#clip13_113_551)">
<g clip-path="url(#clip14_113_551)">
<path fill-rule="evenodd" clip-rule="evenodd" d="M48.0909 230.455C45.5805 230.455 43.5454 232.49 43.5454 235V244.091C43.5454 246.601 45.5805 248.636 48.0909 248.636H57.1818C59.6921 248.636 61.7272 246.601 61.7272 244.091V235C61.7272 232.49 59.6921 230.455 57.1818 230.455H48.0909ZM57.569 238.122C58.0381 237.594 57.9906 236.786 57.4629 236.317C56.9352 235.848 56.1271 235.896 55.6581 236.423L53.3854 238.98L52.0134 240.524L50.1312 238.642C49.632 238.142 48.8225 238.142 48.3233 238.642C47.824 239.141 47.824 239.95 48.3233 240.449L51.1642 243.29C51.4131 243.539 51.7538 243.675 52.1057 243.664C52.4576 243.654 52.7897 243.499 53.0236 243.236L55.2963 240.679L57.569 238.122Z" fill="#4AB393"/>
<path d="M74.2712 234.438V245.182H75.8135V237.402H75.9132L79.0817 245.166H80.3618L83.5304 237.407H83.63V245.182H85.1724V234.438H83.2051L79.7847 242.79H79.6588L76.2384 234.438H74.2712ZM89.7482 245.36C91.0807 245.36 91.8308 244.683 92.1299 244.08H92.1928V245.182H93.7246V239.831C93.7246 237.486 91.878 237.019 90.598 237.019C89.1396 237.019 87.7967 237.607 87.2721 239.075L88.7462 239.411C88.977 238.839 89.5646 238.289 90.619 238.289C91.6315 238.289 92.1508 238.818 92.1508 239.731V239.768C92.1508 240.34 91.5633 240.329 90.1154 240.497C88.5888 240.675 87.0255 241.074 87.0255 242.905C87.0255 244.489 88.2163 245.36 89.7482 245.36ZM90.0892 244.101C89.2026 244.101 88.5626 243.702 88.5626 242.926C88.5626 242.087 89.3075 241.788 90.2151 241.667C90.7239 241.599 91.9305 241.462 92.1561 241.237V242.275C92.1561 243.23 91.3954 244.101 90.0892 244.101ZM95.8139 245.182H97.3824V242.323L98.1641 241.541L100.902 245.182H102.828L99.3444 240.581L102.607 237.124H100.729L97.5188 240.534H97.3824V234.438H95.8139V245.182ZM107.178 245.344C108.935 245.344 110.179 244.479 110.535 243.167L109.051 242.9C108.768 243.66 108.086 244.049 107.194 244.049C105.851 244.049 104.948 243.178 104.906 241.625H110.635V241.069C110.635 238.157 108.893 237.019 107.068 237.019C104.823 237.019 103.343 238.729 103.343 241.205C103.343 243.708 104.802 245.344 107.178 245.344ZM104.912 240.45C104.975 239.306 105.804 238.315 107.078 238.315C108.295 238.315 109.093 239.217 109.098 240.45H104.912ZM122.323 239.091C121.998 237.837 121.017 237.019 119.275 237.019C117.455 237.019 116.164 237.979 116.164 239.406C116.164 240.55 116.857 241.31 118.368 241.646L119.732 241.945C120.508 242.118 120.87 242.464 120.87 242.968C120.87 243.592 120.204 244.08 119.176 244.08C118.237 244.08 117.633 243.676 117.444 242.884L115.928 243.115C116.191 244.542 117.376 245.344 119.186 245.344C121.132 245.344 122.481 244.311 122.481 242.853C122.481 241.714 121.757 241.011 120.277 240.67L118.997 240.376C118.111 240.167 117.728 239.868 117.733 239.322C117.728 238.703 118.399 238.262 119.291 238.262C120.267 238.262 120.718 238.803 120.902 239.343L122.323 239.091ZM127.599 245.344C129.504 245.344 130.736 244.201 130.91 242.632H129.383C129.184 243.503 128.507 244.017 127.61 244.017C126.283 244.017 125.428 242.91 125.428 241.153C125.428 239.427 126.298 238.341 127.61 238.341C128.607 238.341 129.215 238.971 129.383 239.726H130.91C130.742 238.1 129.414 237.019 127.584 237.019C125.312 237.019 123.843 238.729 123.843 241.19C123.843 243.618 125.26 245.344 127.599 245.344ZM135.981 245.344C138.253 245.344 139.737 243.681 139.737 241.19C139.737 238.682 138.253 237.019 135.981 237.019C133.71 237.019 132.225 238.682 132.225 241.19C132.225 243.681 133.71 245.344 135.981 245.344ZM135.986 244.028C134.502 244.028 133.809 242.732 133.809 241.184C133.809 239.642 134.502 238.33 135.986 238.33C137.461 238.33 138.153 239.642 138.153 241.184C138.153 242.732 137.461 244.028 135.986 244.028ZM141.488 248.203H143.057V243.928H143.151C143.434 244.442 144.011 245.339 145.48 245.339C147.432 245.339 148.848 243.776 148.848 241.169C148.848 238.556 147.411 237.019 145.465 237.019C143.969 237.019 143.429 237.932 143.151 238.43H143.02V237.124H141.488V248.203ZM143.025 241.153C143.025 239.469 143.76 238.351 145.129 238.351C146.551 238.351 147.264 239.553 147.264 241.153C147.264 242.769 146.53 244.001 145.129 244.001C143.781 244.001 143.025 242.847 143.025 241.153ZM154.079 245.344C155.836 245.344 157.079 244.479 157.436 243.167L155.951 242.9C155.668 243.66 154.986 244.049 154.094 244.049C152.751 244.049 151.849 243.178 151.807 241.625H157.536V241.069C157.536 238.157 155.794 237.019 153.968 237.019C151.723 237.019 150.244 238.729 150.244 241.205C150.244 243.708 151.702 245.344 154.079 245.344ZM151.812 240.45C151.875 239.306 152.704 238.315 153.979 238.315C155.196 238.315 155.993 239.217 155.999 240.45H151.812ZM163.311 245.182H164.843V243.928H164.974C165.258 244.442 165.835 245.339 167.304 245.339C169.255 245.339 170.672 243.776 170.672 241.169C170.672 238.556 169.234 237.019 167.288 237.019C165.793 237.019 165.252 237.932 164.974 238.43H164.88V234.438H163.311V245.182ZM164.849 241.153C164.849 239.469 165.583 238.351 166.952 238.351C168.374 238.351 169.087 239.553 169.087 241.153C169.087 242.769 168.353 244.001 166.952 244.001C165.604 244.001 164.849 242.847 164.849 241.153ZM177.537 241.84C177.543 243.209 176.525 243.86 175.644 243.86C174.673 243.86 174.002 243.157 174.002 242.06V237.124H172.433V242.249C172.433 244.248 173.529 245.287 175.077 245.287C176.289 245.287 177.112 244.647 177.485 243.786H177.569V245.182H179.111V237.124H177.537V241.84ZM184.98 237.124H183.328V235.193H181.759V237.124H180.579V238.383H181.759V243.141C181.754 244.605 182.871 245.313 184.109 245.287C184.608 245.281 184.943 245.187 185.127 245.119L184.844 243.823C184.739 243.844 184.545 243.891 184.293 243.891C183.784 243.891 183.328 243.723 183.328 242.816V238.383H184.98V237.124ZM190.477 237.124H188.824V235.193H187.256V237.124H186.075V238.383H187.256V243.141C187.25 244.605 188.368 245.313 189.606 245.287C190.104 245.281 190.44 245.187 190.623 245.119L190.34 243.823C190.235 243.844 190.041 243.891 189.789 243.891C189.28 243.891 188.824 243.723 188.824 242.816V238.383H190.477V237.124ZM195.519 245.344C197.791 245.344 199.275 243.681 199.275 241.19C199.275 238.682 197.791 237.019 195.519 237.019C193.248 237.019 191.763 238.682 191.763 241.19C191.763 243.681 193.248 245.344 195.519 245.344ZM195.525 244.028C194.04 244.028 193.347 242.732 193.347 241.184C193.347 239.642 194.04 238.33 195.525 238.33C196.999 238.33 197.691 239.642 197.691 241.184C197.691 242.732 196.999 244.028 195.525 244.028ZM202.595 240.397C202.595 239.112 203.382 238.378 204.473 238.378C205.538 238.378 206.183 239.075 206.183 240.245V245.182H207.752V240.056C207.752 238.063 206.655 237.019 205.008 237.019C203.796 237.019 203.004 237.58 202.632 238.435H202.532V237.124H201.026V245.182H202.595V240.397ZM219.803 239.091C219.478 237.837 218.497 237.019 216.755 237.019C214.935 237.019 213.644 237.979 213.644 239.406C213.644 240.55 214.337 241.31 215.848 241.646L217.211 241.945C217.988 242.118 218.35 242.464 218.35 242.968C218.35 243.592 217.684 244.08 216.655 244.08C215.716 244.08 215.113 243.676 214.924 242.884L213.408 243.115C213.67 244.542 214.856 245.344 216.666 245.344C218.612 245.344 219.96 244.311 219.96 242.853C219.96 241.714 219.236 241.011 217.757 240.67L216.477 240.376C215.59 240.167 215.207 239.868 215.213 239.322C215.207 238.703 215.879 238.262 216.771 238.262C217.747 238.262 218.198 238.803 218.381 239.343L219.803 239.091ZM223.432 245.182H225.027L226.663 239.364H226.784L228.421 245.182H230.021L232.387 237.124H230.766L229.197 243.015H229.119L227.545 237.124H225.924L224.339 243.041H224.261L222.682 237.124H221.061L223.432 245.182ZM233.875 245.182H235.444V237.124H233.875V245.182ZM234.668 235.881C235.208 235.881 235.659 235.461 235.659 234.947C235.659 234.433 235.208 234.008 234.668 234.008C234.122 234.008 233.676 234.433 233.676 234.947C233.676 235.461 234.122 235.881 234.668 235.881ZM241.316 237.124H239.663V235.193H238.094V237.124H236.914V238.383H238.094V243.141C238.089 244.605 239.207 245.313 240.445 245.287C240.943 245.281 241.279 245.187 241.462 245.119L241.179 243.823C241.074 243.844 240.88 243.891 240.628 243.891C240.119 243.891 239.663 243.723 239.663 242.816V238.383H241.316V237.124ZM246.358 245.344C248.263 245.344 249.495 244.201 249.668 242.632H248.142C247.943 243.503 247.266 244.017 246.369 244.017C245.041 244.017 244.186 242.91 244.186 241.153C244.186 239.427 245.057 238.341 246.369 238.341C247.365 238.341 247.974 238.971 248.142 239.726H249.668C249.501 238.1 248.173 237.019 246.343 237.019C244.071 237.019 242.602 238.729 242.602 241.19C242.602 243.618 244.019 245.344 246.358 245.344ZM252.914 240.397C252.914 239.112 253.728 238.378 254.845 238.378C255.926 238.378 256.571 239.065 256.571 240.245V245.182H258.139V240.056C258.139 238.047 257.038 237.019 255.38 237.019C254.126 237.019 253.371 237.565 252.993 238.435H252.893V234.438H251.346V245.182H252.914V240.397ZM74.2712 267.182H75.803V265.928H75.9342C76.2174 266.442 76.7945 267.339 78.2634 267.339C80.2149 267.339 81.6313 265.776 81.6313 263.169C81.6313 260.556 80.1939 259.019 78.2476 259.019C76.7525 259.019 76.2122 259.932 75.9342 260.43H75.8397V256.438H74.2712V267.182ZM75.8082 263.153C75.8082 261.469 76.5427 260.351 77.9119 260.351C79.3336 260.351 80.047 261.553 80.047 263.153C80.047 264.769 79.3126 266.001 77.9119 266.001C76.5637 266.001 75.8082 264.847 75.8082 263.153ZM85.7376 267.36C87.0701 267.36 87.8203 266.683 88.1193 266.08H88.1822V267.182H89.7141V261.831C89.7141 259.486 87.8675 259.019 86.5875 259.019C85.1291 259.019 83.7861 259.607 83.2615 261.075L84.7356 261.411C84.9664 260.839 85.554 260.289 86.6084 260.289C87.6209 260.289 88.1403 260.818 88.1403 261.731V261.768C88.1403 262.34 87.5527 262.329 86.1048 262.497C84.5782 262.675 83.0149 263.074 83.0149 264.905C83.0149 266.489 84.2058 267.36 85.7376 267.36ZM86.0786 266.101C85.192 266.101 84.552 265.702 84.552 264.926C84.552 264.087 85.2969 263.788 86.2045 263.667C86.7134 263.599 87.9199 263.462 88.1455 263.237V264.275C88.1455 265.23 87.3849 266.101 86.0786 266.101ZM97.8414 261.091C97.5162 259.837 96.5352 259.019 94.7935 259.019C92.9731 259.019 91.6826 259.979 91.6826 261.406C91.6826 262.55 92.3751 263.31 93.886 263.646L95.2499 263.945C96.0263 264.118 96.3883 264.464 96.3883 264.968C96.3883 265.592 95.7221 266.08 94.6938 266.08C93.7548 266.08 93.1515 265.676 92.9627 264.884L91.4466 265.115C91.7089 266.542 92.8945 267.344 94.7043 267.344C96.6506 267.344 97.9988 266.311 97.9988 264.853C97.9988 263.714 97.2749 263.011 95.7955 262.67L94.5155 262.376C93.6289 262.167 93.2459 261.868 93.2512 261.322C93.2459 260.703 93.9174 260.262 94.8092 260.262C95.785 260.262 96.2362 260.803 96.4198 261.343L97.8414 261.091ZM103.196 267.344C104.954 267.344 106.197 266.479 106.554 265.167L105.069 264.9C104.786 265.66 104.104 266.049 103.212 266.049C101.869 266.049 100.967 265.178 100.925 263.625H106.653V263.069C106.653 260.157 104.912 259.019 103.086 259.019C100.841 259.019 99.3615 260.729 99.3615 263.205C99.3615 265.708 100.82 267.344 103.196 267.344ZM100.93 262.45C100.993 261.306 101.822 260.315 103.097 260.315C104.314 260.315 105.111 261.217 105.116 262.45H100.93ZM111.41 267.339C112.879 267.339 113.456 266.442 113.739 265.928H113.871V267.182H115.402V256.438H113.834V260.43H113.739C113.456 259.932 112.921 259.019 111.421 259.019C109.474 259.019 108.042 260.556 108.042 263.169C108.042 265.776 109.453 267.339 111.41 267.339ZM111.756 266.001C110.356 266.001 109.627 264.769 109.627 263.153C109.627 261.553 110.34 260.351 111.756 260.351C113.126 260.351 113.86 261.469 113.86 263.153C113.86 264.847 113.11 266.001 111.756 266.001ZM124.945 267.344C127.216 267.344 128.701 265.681 128.701 263.19C128.701 260.682 127.216 259.019 124.945 259.019C122.673 259.019 121.189 260.682 121.189 263.19C121.189 265.681 122.673 267.344 124.945 267.344ZM124.95 266.028C123.466 266.028 122.773 264.732 122.773 263.184C122.773 261.642 123.466 260.33 124.95 260.33C126.424 260.33 127.117 261.642 127.117 263.184C127.117 264.732 126.424 266.028 124.95 266.028ZM132.02 262.397C132.02 261.112 132.807 260.378 133.898 260.378C134.963 260.378 135.609 261.075 135.609 262.245V267.182H137.177V262.056C137.177 260.063 136.081 259.019 134.434 259.019C133.222 259.019 132.43 259.58 132.057 260.435H131.957V259.124H130.452V267.182H132.02V262.397ZM146.952 259.124H145.299V257.193H143.731V259.124H142.55V260.383H143.731V265.141C143.726 266.605 144.843 267.313 146.081 267.287C146.579 267.281 146.915 267.187 147.099 267.119L146.815 265.823C146.711 265.844 146.516 265.891 146.265 265.891C145.756 265.891 145.299 265.723 145.299 264.816V260.383H146.952V259.124ZM151.995 267.344C154.266 267.344 155.751 265.681 155.751 263.19C155.751 260.682 154.266 259.019 151.995 259.019C149.723 259.019 148.238 260.682 148.238 263.19C148.238 265.681 149.723 267.344 151.995 267.344ZM152 266.028C150.515 266.028 149.823 264.732 149.823 263.184C149.823 261.642 150.515 260.33 152 260.33C153.474 260.33 154.166 261.642 154.166 263.184C154.166 264.732 153.474 266.028 152 266.028ZM160.518 267.339C161.987 267.339 162.564 266.442 162.847 265.928H162.978V267.182H164.51V256.438H162.942V260.43H162.847C162.564 259.932 162.029 259.019 160.528 259.019C158.582 259.019 157.15 260.556 157.15 263.169C157.15 265.776 158.561 267.339 160.518 267.339ZM160.864 266.001C159.464 266.001 158.734 264.769 158.734 263.153C158.734 261.553 159.448 260.351 160.864 260.351C162.233 260.351 162.968 261.469 162.968 263.153C162.968 264.847 162.218 266.001 160.864 266.001ZM170.143 267.344C172.415 267.344 173.899 265.681 173.899 263.19C173.899 260.682 172.415 259.019 170.143 259.019C167.872 259.019 166.387 260.682 166.387 263.19C166.387 265.681 167.872 267.344 170.143 267.344ZM170.148 266.028C168.664 266.028 167.971 264.732 167.971 263.184C167.971 261.642 168.664 260.33 170.148 260.33C171.622 260.33 172.315 261.642 172.315 263.184C172.315 264.732 171.622 266.028 170.148 266.028ZM176.841 256.438H175.54V260.262H176.841V256.438ZM184.905 261.091C184.58 259.837 183.599 259.019 181.857 259.019C180.037 259.019 178.747 259.979 178.747 261.406C178.747 262.55 179.439 263.31 180.95 263.646L182.314 263.945C183.09 264.118 183.452 264.464 183.452 264.968C183.452 265.592 182.786 266.08 181.758 266.08C180.819 266.08 180.215 265.676 180.027 264.884L178.51 265.115C178.773 266.542 179.958 267.344 181.768 267.344C183.714 267.344 185.063 266.311 185.063 264.853C185.063 263.714 184.339 263.011 182.859 262.67L181.579 262.376C180.693 262.167 180.31 261.868 180.315 261.322C180.31 260.703 180.981 260.262 181.873 260.262C182.849 260.262 183.3 260.803 183.484 261.343L184.905 261.091ZM196.735 261.091C196.41 259.837 195.429 259.019 193.687 259.019C191.867 259.019 190.576 259.979 190.576 261.406C190.576 262.55 191.269 263.31 192.78 263.646L194.144 263.945C194.92 264.118 195.282 264.464 195.282 264.968C195.282 265.592 194.616 266.08 193.587 266.08C192.648 266.08 192.045 265.676 191.856 264.884L190.34 265.115C190.602 266.542 191.788 267.344 193.598 267.344C195.544 267.344 196.892 266.311 196.892 264.853C196.892 263.714 196.168 263.011 194.689 262.67L193.409 262.376C192.523 262.167 192.14 261.868 192.145 261.322C192.14 260.703 192.811 260.262 193.703 260.262C194.679 260.262 195.13 260.803 195.313 261.343L196.735 261.091ZM202.011 267.344C203.915 267.344 205.148 266.201 205.321 264.632H203.795C203.595 265.503 202.919 266.017 202.022 266.017C200.694 266.017 199.839 264.91 199.839 263.153C199.839 261.427 200.71 260.341 202.022 260.341C203.018 260.341 203.627 260.971 203.795 261.726H205.321C205.154 260.1 203.826 259.019 201.995 259.019C199.724 259.019 198.255 260.729 198.255 263.19C198.255 265.618 199.671 267.344 202.011 267.344ZM210.393 267.344C212.665 267.344 214.149 265.681 214.149 263.19C214.149 260.682 212.665 259.019 210.393 259.019C208.121 259.019 206.637 260.682 206.637 263.19C206.637 265.681 208.121 267.344 210.393 267.344ZM210.398 266.028C208.914 266.028 208.221 264.732 208.221 263.184C208.221 261.642 208.914 260.33 210.398 260.33C211.872 260.33 212.565 261.642 212.565 263.184C212.565 264.732 211.872 266.028 210.398 266.028ZM215.9 270.203H217.469V265.928H217.563C217.846 266.442 218.423 267.339 219.892 267.339C221.844 267.339 223.26 265.776 223.26 263.169C223.26 260.556 221.823 259.019 219.876 259.019C218.381 259.019 217.841 259.932 217.563 260.43H217.432V259.124H215.9V270.203ZM217.437 263.153C217.437 261.469 218.171 260.351 219.541 260.351C220.962 260.351 221.676 261.553 221.676 263.153C221.676 264.769 220.941 266.001 219.541 266.001C218.192 266.001 217.437 264.847 217.437 263.153ZM228.49 267.344C230.248 267.344 231.491 266.479 231.848 265.167L230.363 264.9C230.08 265.66 229.398 266.049 228.506 266.049C227.163 266.049 226.261 265.178 226.219 263.625H231.947V263.069C231.947 260.157 230.206 259.019 228.38 259.019C226.135 259.019 224.656 260.729 224.656 263.205C224.656 265.708 226.114 267.344 228.49 267.344ZM226.224 262.45C226.287 261.306 227.116 260.315 228.391 260.315C229.608 260.315 230.405 261.217 230.41 262.45H226.224ZM243.636 261.091C243.31 259.837 242.329 259.019 240.588 259.019C238.767 259.019 237.477 259.979 237.477 261.406C237.477 262.55 238.169 263.31 239.68 263.646L241.044 263.945C241.82 264.118 242.182 264.464 242.182 264.968C242.182 265.592 241.516 266.08 240.488 266.08C239.549 266.08 238.946 265.676 238.757 264.884L237.241 265.115C237.503 266.542 238.689 267.344 240.498 267.344C242.445 267.344 243.793 266.311 243.793 264.853C243.793 263.714 243.069 263.011 241.59 262.67L240.31 262.376C239.423 262.167 239.04 261.868 239.045 261.322C239.04 260.703 239.712 260.262 240.603 260.262C241.579 260.262 242.03 260.803 242.214 261.343L243.636 261.091ZM249.279 259.124H247.626V257.193H246.058V259.124H244.878V260.383H246.058V265.141C246.053 266.605 247.17 267.313 248.408 267.287C248.906 267.281 249.242 267.187 249.426 267.119L249.143 265.823C249.038 265.844 248.844 265.891 248.592 265.891C248.083 265.891 247.626 265.723 247.626 264.816V260.383H249.279V259.124ZM253.359 267.36C254.691 267.36 255.442 266.683 255.741 266.08H255.804V267.182H257.335V261.831C257.335 259.486 255.489 259.019 254.209 259.019C252.75 259.019 251.408 259.607 250.883 261.075L252.357 261.411C252.588 260.839 253.175 260.289 254.23 260.289C255.242 260.289 255.762 260.818 255.762 261.731V261.768C255.762 262.34 255.174 262.329 253.726 262.497C252.2 262.675 250.636 263.074 250.636 264.905C250.636 266.489 251.827 267.36 253.359 267.36ZM253.7 266.101C252.813 266.101 252.173 265.702 252.173 264.926C252.173 264.087 252.918 263.788 253.826 263.667C254.335 263.599 255.541 263.462 255.767 263.237V264.275C255.767 265.23 255.006 266.101 253.7 266.101ZM263.186 259.124H261.534V257.193H259.965V259.124H258.785V260.383H259.965V265.141C259.96 266.605 261.077 267.313 262.315 267.287C262.814 267.281 263.149 267.187 263.333 267.119L263.05 265.823C262.945 265.844 262.751 265.891 262.499 265.891C261.99 265.891 261.534 265.723 261.534 264.816V260.383H263.186V259.124ZM268.307 267.344C270.065 267.344 271.308 266.479 271.665 265.167L270.18 264.9C269.897 265.66 269.215 266.049 268.323 266.049C266.98 266.049 266.078 265.178 266.036 263.625H271.765V263.069C271.765 260.157 270.023 259.019 268.197 259.019C265.952 259.019 264.473 260.729 264.473 263.205C264.473 265.708 265.931 267.344 268.307 267.344ZM266.041 262.45C266.104 261.306 266.933 260.315 268.208 260.315C269.425 260.315 270.222 261.217 270.228 262.45H266.041Z" fill="#767676"/>
</g>
<g clip-path="url(#clip15_113_551)">
<rect width="22.7273" height="22.7273" transform="translate(327.636 228.182)" fill="white"/>
<path d="M334 239.546C334 238.29 332.983 237.273 331.727 237.273C330.472 237.273 329.455 238.29 329.455 239.546C329.455 240.801 330.472 241.818 331.727 241.818C332.983 241.818 334 240.801 334 239.546Z" fill="#949494"/>
<path d="M341.273 239.546C341.273 238.29 340.255 237.273 339 237.273C337.745 237.273 336.727 238.29 336.727 239.546C336.727 240.801 337.745 241.818 339 241.818C340.255 241.818 341.273 240.801 341.273 239.546Z" fill="#949494"/>
<path d="M348.545 239.546C348.545 238.29 347.528 237.273 346.273 237.273C345.017 237.273 344 238.29 344 239.546C344 240.801 345.017 241.818 346.273 241.818C347.528 241.818 348.545 240.801 348.545 239.546Z" fill="#949494"/>
</g>
</g>
<g clip-path="url(#clip16_113_551)">
<g clip-path="url(#clip17_113_551)">
<path fill-rule="evenodd" clip-rule="evenodd" d="M48.0909 285C45.5805 285 43.5454 287.035 43.5454 289.545V298.636C43.5454 301.147 45.5805 303.182 48.0909 303.182H57.1818C59.6921 303.182 61.7272 301.147 61.7272 298.636V289.545C61.7272 287.035 59.6921 285 57.1818 285H48.0909ZM57.569 292.668C58.0381 292.14 57.9906 291.332 57.4629 290.863C56.9352 290.394 56.1271 290.441 55.6581 290.969L53.3854 293.526L52.0134 295.069L50.1312 293.187C49.632 292.688 48.8225 292.688 48.3233 293.187C47.824 293.686 47.824 294.496 48.3233 294.995L51.1642 297.836C51.4131 298.085 51.7538 298.22 52.1057 298.21C52.4576 298.199 52.7897 298.044 53.0236 297.781L55.2963 295.224L57.569 292.668Z" fill="#4AB393"/>
<path d="M76.3748 299.727H78.0116L80.2726 291.68H80.3565L82.6176 299.727H84.2491L87.234 288.983H85.5238L83.4359 297.309H83.3363L81.1592 288.983H79.47L77.2929 297.304H77.1932L75.1 288.983H73.3951L76.3748 299.727ZM88.0813 299.727H89.6498V294.807C89.6498 293.752 90.4629 292.991 91.5751 292.991C91.9003 292.991 92.2676 293.049 92.3935 293.086V291.586C92.2361 291.565 91.9266 291.549 91.7272 291.549C90.7829 291.549 89.9751 292.084 89.6813 292.949H89.5974V291.669H88.0813V299.727ZM93.7509 299.727H95.3194V291.669H93.7509V299.727ZM94.543 290.426C95.0834 290.426 95.5345 290.006 95.5345 289.492C95.5345 288.978 95.0834 288.553 94.543 288.553C93.9974 288.553 93.5515 288.978 93.5515 289.492C93.5515 290.006 93.9974 290.426 94.543 290.426ZM101.191 291.669H99.5385V289.739H97.97V291.669H96.7896V292.928H97.97V297.687C97.9647 299.15 99.0821 299.858 100.32 299.832C100.819 299.827 101.154 299.733 101.338 299.664L101.055 298.369C100.95 298.39 100.756 298.437 100.504 298.437C99.9949 298.437 99.5385 298.269 99.5385 297.361V292.928H101.191V291.669ZM106.312 299.89C108.07 299.89 109.313 299.024 109.67 297.713L108.185 297.445C107.902 298.206 107.22 298.594 106.328 298.594C104.985 298.594 104.083 297.723 104.041 296.171H109.77V295.614C109.77 292.703 108.028 291.565 106.202 291.565C103.957 291.565 102.478 293.275 102.478 295.751C102.478 298.253 103.936 299.89 106.312 299.89ZM104.046 294.995C104.109 293.852 104.938 292.86 106.213 292.86C107.43 292.86 108.227 293.763 108.232 294.995H104.046ZM118.436 299.885C119.905 299.885 120.482 298.988 120.765 298.474H120.896V299.727H122.428V288.983H120.86V292.976H120.765C120.482 292.477 119.947 291.565 118.446 291.565C116.5 291.565 115.068 293.102 115.068 295.714C115.068 298.321 116.479 299.885 118.436 299.885ZM118.782 298.547C117.381 298.547 116.652 297.314 116.652 295.698C116.652 294.098 117.366 292.897 118.782 292.897C120.151 292.897 120.886 294.014 120.886 295.698C120.886 297.393 120.136 298.547 118.782 298.547ZM128.14 299.89C129.897 299.89 131.14 299.024 131.497 297.713L130.013 297.445C129.729 298.206 129.047 298.594 128.155 298.594C126.812 298.594 125.91 297.723 125.868 296.171H131.597V295.614C131.597 292.703 129.855 291.565 128.03 291.565C125.784 291.565 124.305 293.275 124.305 295.751C124.305 298.253 125.763 299.89 128.14 299.89ZM125.873 294.995C125.936 293.852 126.765 292.86 128.04 292.86C129.257 292.86 130.054 293.763 130.06 294.995H125.873ZM139.375 293.637C139.05 292.383 138.069 291.565 136.327 291.565C134.507 291.565 133.217 292.525 133.217 293.951C133.217 295.095 133.909 295.856 135.42 296.191L136.784 296.491C137.56 296.664 137.922 297.01 137.922 297.513C137.922 298.138 137.256 298.626 136.228 298.626C135.289 298.626 134.685 298.222 134.497 297.43L132.98 297.66C133.243 299.087 134.428 299.89 136.238 299.89C138.184 299.89 139.533 298.856 139.533 297.398C139.533 296.26 138.809 295.557 137.329 295.216L136.049 294.922C135.163 294.712 134.78 294.413 134.785 293.868C134.78 293.248 135.451 292.808 136.343 292.808C137.319 292.808 137.77 293.348 137.954 293.888L139.375 293.637ZM144.651 299.89C146.556 299.89 147.789 298.746 147.962 297.178H146.435C146.236 298.049 145.559 298.563 144.662 298.563C143.335 298.563 142.48 297.456 142.48 295.698C142.48 293.972 143.35 292.887 144.662 292.887C145.659 292.887 146.267 293.516 146.435 294.271H147.962C147.794 292.645 146.467 291.565 144.636 291.565C142.364 291.565 140.895 293.275 140.895 295.735C140.895 298.164 142.312 299.89 144.651 299.89ZM149.639 299.727H151.208V294.807C151.208 293.752 152.021 292.991 153.133 292.991C153.458 292.991 153.825 293.049 153.951 293.086V291.586C153.794 291.565 153.484 291.549 153.285 291.549C152.341 291.549 151.533 292.084 151.239 292.949H151.155V291.669H149.639V299.727ZM155.309 299.727H156.877V291.669H155.309V299.727ZM156.101 290.426C156.641 290.426 157.092 290.006 157.092 289.492C157.092 288.978 156.641 288.553 156.101 288.553C155.555 288.553 155.109 288.978 155.109 289.492C155.109 290.006 155.555 290.426 156.101 290.426ZM158.987 302.749H160.556V298.474H160.65C160.934 298.988 161.511 299.885 162.98 299.885C164.931 299.885 166.348 298.321 166.348 295.714C166.348 293.102 164.91 291.565 162.964 291.565C161.469 291.565 160.928 292.477 160.65 292.976H160.519V291.669H158.987V302.749ZM160.525 295.698C160.525 294.014 161.259 292.897 162.628 292.897C164.05 292.897 164.763 294.098 164.763 295.698C164.763 297.314 164.029 298.547 162.628 298.547C161.28 298.547 160.525 297.393 160.525 295.698ZM171.866 291.669H170.214V289.739H168.645V291.669H167.465V292.928H168.645V297.687C168.64 299.15 169.757 299.858 170.996 299.832C171.494 299.827 171.83 299.733 172.013 299.664L171.73 298.369C171.625 298.39 171.431 298.437 171.179 298.437C170.67 298.437 170.214 298.269 170.214 297.361V292.928H171.866V291.669ZM173.602 299.727H175.17V291.669H173.602V299.727ZM174.394 290.426C174.934 290.426 175.385 290.006 175.385 289.492C175.385 288.978 174.934 288.553 174.394 288.553C173.848 288.553 173.402 288.978 173.402 289.492C173.402 290.006 173.848 290.426 174.394 290.426ZM180.674 299.89C182.946 299.89 184.431 298.227 184.431 295.735C184.431 293.228 182.946 291.565 180.674 291.565C178.403 291.565 176.918 293.228 176.918 295.735C176.918 298.227 178.403 299.89 180.674 299.89ZM180.68 298.573C179.195 298.573 178.503 297.277 178.503 295.73C178.503 294.188 179.195 292.876 180.68 292.876C182.154 292.876 182.846 294.188 182.846 295.73C182.846 297.277 182.154 298.573 180.68 298.573ZM187.75 294.943C187.75 293.658 188.537 292.923 189.628 292.923C190.693 292.923 191.338 293.621 191.338 294.791V299.727H192.907V294.602C192.907 292.608 191.81 291.565 190.163 291.565C188.951 291.565 188.159 292.126 187.787 292.981H187.687V291.669H186.181V299.727H187.75V294.943Z" fill="#767676"/>
</g>
<g clip-path="url(#clip18_113_551)">
<rect width="22.7273" height="22.7273" transform="translate(327.636 282.727)" fill="white"/>
<path d="M334 294.091C334 292.836 332.983 291.818 331.727 291.818C330.472 291.818 329.455 292.836 329.455 294.091C329.455 295.346 330.472 296.364 331.727 296.364C332.983 296.364 334 295.346 334 294.091Z" fill="#949494"/>
<path d="M341.273 294.091C341.273 292.836 340.255 291.818 339 291.818C337.745 291.818 336.727 292.836 336.727 294.091C336.727 295.346 337.745 296.364 339 296.364C340.255 296.364 341.273 295.346 341.273 294.091Z" fill="#949494"/>
<path d="M348.545 294.091C348.545 292.836 347.528 291.818 346.273 291.818C345.017 291.818 344 292.836 344 294.091C344 295.346 345.017 296.364 346.273 296.364C347.528 296.364 348.545 295.346 348.545 294.091Z" fill="#949494"/>
</g>
</g>
</g>
<rect width="363.636" height="77.2727" transform="translate(14 332.727)" fill="#F2F2F2"/>
<g clip-path="url(#clip19_113_551)">
<g clip-path="url(#clip20_113_551)">
<rect x="41.2727" y="360" width="22.7273" height="22.7273" fill="#F2F2F2"/>
<path d="M74.2712 366.256V377H75.8135V369.22H75.9132L79.0817 376.984H80.3618L83.5304 369.225H83.63V377H85.1724V366.256H83.2051L79.7847 374.608H79.6588L76.2384 366.256H74.2712ZM89.7482 377.178C91.0807 377.178 91.8308 376.502 92.1299 375.898H92.1928V377H93.7246V371.649C93.7246 369.304 91.878 368.837 90.598 368.837C89.1396 368.837 87.7967 369.425 87.2721 370.894L88.7462 371.229C88.977 370.658 89.5646 370.107 90.619 370.107C91.6315 370.107 92.1508 370.637 92.1508 371.549V371.586C92.1508 372.158 91.5633 372.147 90.1154 372.315C88.5888 372.494 87.0255 372.892 87.0255 374.723C87.0255 376.308 88.2163 377.178 89.7482 377.178ZM90.0892 375.919C89.2026 375.919 88.5626 375.521 88.5626 374.744C88.5626 373.905 89.3075 373.606 90.2151 373.485C90.7239 373.417 91.9305 373.281 92.1561 373.055V374.094C92.1561 375.048 91.3954 375.919 90.0892 375.919ZM95.8139 377H97.3824V374.141L98.1641 373.359L100.902 377H102.828L99.3444 372.399L102.607 368.942H100.729L97.5188 372.352H97.3824V366.256H95.8139V377ZM107.178 377.163C108.935 377.163 110.179 376.297 110.535 374.986L109.051 374.718C108.768 375.479 108.086 375.867 107.194 375.867C105.851 375.867 104.948 374.996 104.906 373.443H110.635V372.887C110.635 369.976 108.893 368.837 107.068 368.837C104.823 368.837 103.343 370.547 103.343 373.024C103.343 375.526 104.802 377.163 107.178 377.163ZM104.912 372.268C104.975 371.124 105.804 370.133 107.078 370.133C108.295 370.133 109.093 371.035 109.098 372.268H104.912ZM118.63 377.178C119.962 377.178 120.713 376.502 121.012 375.898H121.075V377H122.606V371.649C122.606 369.304 120.76 368.837 119.48 368.837C118.021 368.837 116.678 369.425 116.154 370.894L117.628 371.229C117.859 370.658 118.446 370.107 119.501 370.107C120.513 370.107 121.033 370.637 121.033 371.549V371.586C121.033 372.158 120.445 372.147 118.997 372.315C117.471 372.494 115.907 372.892 115.907 374.723C115.907 376.308 117.098 377.178 118.63 377.178ZM118.971 375.919C118.084 375.919 117.444 375.521 117.444 374.744C117.444 373.905 118.189 373.606 119.097 373.485C119.606 373.417 120.812 373.281 121.038 373.055V374.094C121.038 375.048 120.277 375.919 118.971 375.919ZM128.731 377H130.352V372.315H134.916V370.925H130.352V367.652H135.394V366.256H128.731V377ZM137.261 377H138.83V368.942H137.261V377ZM138.053 367.699C138.594 367.699 139.045 367.279 139.045 366.765C139.045 366.251 138.594 365.826 138.053 365.826C137.508 365.826 137.062 366.251 137.062 366.765C137.062 367.279 137.508 367.699 138.053 367.699ZM144.318 380.19C146.37 380.19 147.954 379.251 147.954 377.178V368.942H146.417V370.248H146.301C146.023 369.75 145.467 368.837 143.967 368.837C142.021 368.837 140.588 370.374 140.588 372.94C140.588 375.51 142.052 376.879 143.956 376.879C145.436 376.879 146.008 376.045 146.291 375.531H146.391V377.115C146.391 378.38 145.525 378.925 144.334 378.925C143.028 378.925 142.519 378.27 142.241 377.808L140.893 378.364C141.318 379.35 142.393 380.19 144.318 380.19ZM144.303 375.578C142.902 375.578 142.173 374.503 142.173 372.919C142.173 371.371 142.886 370.17 144.303 370.17C145.672 370.17 146.406 371.287 146.406 372.919C146.406 374.582 145.656 375.578 144.303 375.578ZM154.359 366.256V373.873C154.354 375.111 153.777 375.772 152.749 375.772C151.799 375.772 151.138 375.206 151.133 374.314H149.522C149.522 376.129 150.886 377.147 152.707 377.147C154.679 377.147 155.97 375.94 155.975 373.873V366.256H154.359ZM160.553 377.178C161.886 377.178 162.636 376.502 162.935 375.898H162.998V377H164.53V371.649C164.53 369.304 162.683 368.837 161.403 368.837C159.945 368.837 158.602 369.425 158.077 370.894L159.551 371.229C159.782 370.658 160.37 370.107 161.424 370.107C162.437 370.107 162.956 370.637 162.956 371.549V371.586C162.956 372.158 162.369 372.147 160.921 372.315C159.394 372.494 157.831 372.892 157.831 374.723C157.831 376.308 159.022 377.178 160.553 377.178ZM160.894 375.919C160.008 375.919 159.368 375.521 159.368 374.744C159.368 373.905 160.113 373.606 161.02 373.485C161.529 373.417 162.736 373.281 162.961 373.055V374.094C162.961 375.048 162.201 375.919 160.894 375.919ZM166.619 377H168.188V372.032C168.188 370.946 168.948 370.191 169.84 370.191C170.711 370.191 171.314 370.768 171.314 371.644V377H172.878V371.864C172.878 370.894 173.47 370.191 174.493 370.191C175.322 370.191 176.004 370.652 176.004 371.744V377H177.573V371.597C177.573 369.755 176.545 368.837 175.086 368.837C173.927 368.837 173.056 369.393 172.668 370.254H172.584C172.232 369.372 171.493 368.837 170.417 368.837C169.352 368.837 168.56 369.367 168.224 370.254H168.125V368.942H166.619V377ZM186.963 380.19C189.014 380.19 190.599 379.251 190.599 377.178V368.942H189.061V370.248H188.946C188.668 369.75 188.112 368.837 186.612 368.837C184.665 368.837 183.233 370.374 183.233 372.94C183.233 375.51 184.697 376.879 186.601 376.879C188.08 376.879 188.652 376.045 188.936 375.531H189.035V377.115C189.035 378.38 188.17 378.925 186.979 378.925C185.673 378.925 185.164 378.27 184.886 377.808L183.537 378.364C183.962 379.35 185.038 380.19 186.963 380.19ZM186.947 375.578C185.547 375.578 184.817 374.503 184.817 372.919C184.817 371.371 185.531 370.17 186.947 370.17C188.317 370.17 189.051 371.287 189.051 372.919C189.051 374.582 188.301 375.578 186.947 375.578ZM192.702 377H194.271V372.079C194.271 371.025 195.084 370.264 196.196 370.264C196.521 370.264 196.888 370.322 197.014 370.359V368.858C196.857 368.837 196.547 368.821 196.348 368.821C195.404 368.821 194.596 369.357 194.302 370.222H194.218V368.942H192.702V377ZM200.645 377.178C201.977 377.178 202.727 376.502 203.026 375.898H203.089V377H204.621V371.649C204.621 369.304 202.774 368.837 201.494 368.837C200.036 368.837 198.693 369.425 198.169 370.894L199.643 371.229C199.873 370.658 200.461 370.107 201.515 370.107C202.528 370.107 203.047 370.637 203.047 371.549V371.586C203.047 372.158 202.46 372.147 201.012 372.315C199.485 372.494 197.922 372.892 197.922 374.723C197.922 376.308 199.113 377.178 200.645 377.178ZM200.986 375.919C200.099 375.919 199.459 375.521 199.459 374.744C199.459 373.905 200.204 373.606 201.112 373.485C201.62 373.417 202.827 373.281 203.053 373.055V374.094C203.053 375.048 202.292 375.919 200.986 375.919ZM206.71 380.022H208.279V375.746H208.373C208.657 376.26 209.234 377.157 210.703 377.157C212.654 377.157 214.07 375.594 214.07 372.987C214.07 370.374 212.633 368.837 210.687 368.837C209.192 368.837 208.651 369.75 208.373 370.248H208.242V368.942H206.71V380.022ZM208.247 372.971C208.247 371.287 208.982 370.17 210.351 370.17C211.773 370.17 212.486 371.371 212.486 372.971C212.486 374.587 211.752 375.82 210.351 375.82C209.003 375.82 208.247 374.666 208.247 372.971ZM217.396 372.216C217.396 370.93 218.21 370.196 219.327 370.196C220.408 370.196 221.053 370.883 221.053 372.064V377H222.621V371.875C222.621 369.865 221.52 368.837 219.862 368.837C218.608 368.837 217.853 369.383 217.475 370.254H217.375V366.256H215.828V377H217.396V372.216ZM224.715 377H226.283V368.942H224.715V377ZM225.507 367.699C226.047 367.699 226.498 367.279 226.498 366.765C226.498 366.251 226.047 365.826 225.507 365.826C224.961 365.826 224.515 366.251 224.515 366.765C224.515 367.279 224.961 367.699 225.507 367.699ZM231.787 377.163C233.692 377.163 234.925 376.019 235.098 374.45H233.571C233.372 375.321 232.695 375.835 231.798 375.835C230.471 375.835 229.616 374.728 229.616 372.971C229.616 371.245 230.486 370.159 231.798 370.159C232.795 370.159 233.403 370.789 233.571 371.544H235.098C234.93 369.918 233.603 368.837 231.772 368.837C229.5 368.837 228.031 370.547 228.031 373.008C228.031 375.437 229.448 377.163 231.787 377.163Z" fill="#6E6E6E"/>
</g>
<g clip-path="url(#clip21_113_551)">
<rect width="22.7273" height="22.7273" transform="translate(327.636 360)" fill="#F2F2F2"/>
<path d="M334 371.364C334 370.108 332.983 369.091 331.727 369.091C330.472 369.091 329.455 370.108 329.455 371.364C329.455 372.619 330.472 373.636 331.727 373.636C332.983 373.636 334 372.619 334 371.364Z" fill="#949494"/>
<path d="M341.273 371.364C341.273 370.108 340.255 369.091 339 369.091C337.745 369.091 336.727 370.108 336.727 371.364C336.727 372.619 337.745 373.636 339 373.636C340.255 373.636 341.273 372.619 341.273 371.364Z" fill="#949494"/>
<path d="M348.545 371.364C348.545 370.108 347.528 369.091 346.273 369.091C345.017 369.091 344 370.108 344 371.364C344 372.619 345.017 373.636 346.273 373.636C347.528 373.636 348.545 372.619 348.545 371.364Z" fill="#949494"/>
</g>
</g>
</g>
</g>
<defs>
<filter id="filter0_d_113_551" x="0.363635" y="0.90909" width="390.909" height="427.273" filterUnits="userSpaceOnUse" color-interpolation-filters="sRGB">
<feFlood flood-opacity="0" result="BackgroundImageFix"/>
<feColorMatrix in="SourceAlpha" type="matrix" values="0 0 0 0 0 0 0 0 0 0 0 0 0 0 0 0 0 0 127 0" result="hardAlpha"/>
<feOffset dy="4.54545"/>
<feGaussianBlur stdDeviation="6.81818"/>
<feColorMatrix type="matrix" values="0 0 0 0 0 0 0 0 0 0 0 0 0 0 0 0 0 0 0.09 0"/>
<feBlend mode="normal" in2="BackgroundImageFix" result="effect1_dropShadow_113_551"/>
<feBlend mode="normal" in="SourceGraphic" in2="effect1_dropShadow_113_551" result="shape"/>
</filter>
<clipPath id="clip0_113_551">
<rect x="14" y="10" width="363.636" height="400" rx="9.09091" fill="white"/>
</clipPath>
<clipPath id="clip1_113_551">
<rect width="309.091" height="109.091" fill="white" transform="translate(41.2728 37.2728)"/>
</clipPath>
<clipPath id="clip2_113_551">
<rect width="309.091" height="45.4545" fill="white" transform="translate(41.2728 37.2728)"/>
</clipPath>
<clipPath id="clip3_113_551">
<rect width="236.364" height="45.4545" fill="white" transform="translate(41.2728 37.2728)"/>
</clipPath>
<clipPath id="clip4_113_551">
<rect width="22.7273" height="22.7273" fill="white" transform="translate(327.636 37.2728)"/>
</clipPath>
<clipPath id="clip5_113_551">
<rect width="309.091" height="22.7273" fill="white" transform="translate(41.2728 91.8182)"/>
</clipPath>
<clipPath id="clip6_113_551">
<rect width="236.364" height="22.7273" fill="white" transform="translate(41.2728 91.8182)"/>
</clipPath>
<clipPath id="clip7_113_551">
<rect width="22.7273" height="22.7273" fill="white" transform="translate(327.636 91.8182)"/>
</clipPath>
<clipPath id="clip8_113_551">
<rect width="115.909" height="22.7273" fill="white" transform="translate(41.2728 123.636)"/>
</clipPath>
<clipPath id="clip9_113_551">
<rect width="309.091" height="131.818" fill="white" transform="translate(41.2727 173.636)"/>
</clipPath>
<clipPath id="clip10_113_551">
<rect width="309.091" height="45.4545" fill="white" transform="translate(41.2727 173.636)"/>
</clipPath>
<clipPath id="clip11_113_551">
<rect width="236.364" height="45.4545" fill="white" transform="translate(41.2727 173.636)"/>
</clipPath>
<clipPath id="clip12_113_551">
<rect width="22.7273" height="22.7273" fill="white" transform="translate(327.636 173.636)"/>
</clipPath>
<clipPath id="clip13_113_551">
<rect width="309.091" height="45.4545" fill="white" transform="translate(41.2727 228.182)"/>
</clipPath>
<clipPath id="clip14_113_551">
<rect width="236.364" height="45.4545" fill="white" transform="translate(41.2727 228.182)"/>
</clipPath>
<clipPath id="clip15_113_551">
<rect width="22.7273" height="22.7273" fill="white" transform="translate(327.636 228.182)"/>
</clipPath>
<clipPath id="clip16_113_551">
<rect width="309.091" height="22.7273" fill="white" transform="translate(41.2727 282.727)"/>
</clipPath>
<clipPath id="clip17_113_551">
<rect width="236.364" height="22.7273" fill="white" transform="translate(41.2727 282.727)"/>
</clipPath>
<clipPath id="clip18_113_551">
<rect width="22.7273" height="22.7273" fill="white" transform="translate(327.636 282.727)"/>
</clipPath>
<clipPath id="clip19_113_551">
<rect width="309.091" height="22.7273" fill="white" transform="translate(41.2727 360)"/>
</clipPath>
<clipPath id="clip20_113_551">
<rect width="236.364" height="22.7273" fill="white" transform="translate(41.2727 360)"/>
</clipPath>
<clipPath id="clip21_113_551">
<rect width="22.7273" height="22.7273" fill="white" transform="translate(327.636 360)"/>
</clipPath>
</defs>
</svg>
